<?xml version="1.0" encoding="UTF-8"?>
<svg xmlns="http://www.w3.org/2000/svg" width="492" height="220" viewBox="0 0 492 220" fill="none">
  <rect x="3" y="2.5" width="486" height="215" fill="white" stroke="url(#paint0_linear_328_700)" stroke-width="5"></rect>
  <g clip-path="url(#clip0_328_700)">
    <path d="M308.238 148.315C307.943 147.501 307.442 146.542 307.642 145.813C308.202 143.758 309.085 141.793 309.826 139.785C310.371 138.309 310.888 136.821 311.5 135.122H295.239C295.282 134.852 295.282 134.766 295.313 134.692C295.384 134.512 295.466 134.332 295.552 134.155C298.858 127.418 300.823 120.333 301.25 112.824C301.607 106.514 301.073 100.309 299.391 94.1902C298.254 90.0563 296.654 86.1181 294.627 82.36C291.525 76.6132 287.467 71.6102 282.593 67.2414C277.354 62.5477 271.406 59.048 264.857 56.5347C259.905 54.6322 254.725 53.5987 249.474 53.1329C246.298 52.851 243.051 53.035 239.867 53.3482C236.852 53.6418 233.868 54.3112 230.895 54.9414C227.413 55.6774 224.12 56.9888 220.928 58.5312C215.077 61.3616 209.835 65.0531 205.255 69.6881C201.059 73.9356 197.636 78.7233 194.957 84.0433C192.628 88.6666 190.899 93.5169 190.091 98.6413C189.601 101.746 189.213 104.881 189.08 108.021C188.88 112.66 189.476 117.244 190.495 121.785C191.46 126.075 192.965 130.155 194.875 134.105C195.33 135.04 195.252 135.189 194.181 135.189C189.566 135.189 184.95 135.189 180.339 135.189C180.1 135.189 179.861 135.212 179.539 135.232C180.633 138.191 181.715 141.041 182.731 143.911C183.045 144.799 183.731 145.657 183.382 146.675C182.696 148.644 181.943 150.593 181.214 152.547C180.661 154.023 180.104 155.494 179.5 157.099C179.923 157.119 180.218 157.146 180.512 157.146C183.28 157.154 186.048 157.186 188.817 157.143C189.691 157.131 189.923 157.46 189.911 158.27C189.876 160.893 189.895 163.52 189.895 166.142V167.008H301.042C301.058 166.831 301.081 166.694 301.081 166.565C301.081 163.774 301.089 160.983 301.054 158.192C301.042 157.389 301.321 157.123 302.128 157.139C304.924 157.186 307.72 157.166 310.52 157.166C310.81 157.166 311.1 157.131 311.367 157.115C311.39 156.951 311.422 156.888 311.406 156.845C310.347 154.007 309.269 151.177 308.241 148.327L308.238 148.315ZM287.577 139.182C287.228 139.738 286.738 139.808 286.145 139.808C280.836 139.808 275.531 139.8 270.221 139.8C264.912 139.8 259.607 139.8 254.297 139.8H245.196C240.667 139.8 236.134 139.8 231.605 139.8C228.586 139.8 225.563 139.8 222.543 139.8C219.9 139.8 217.257 139.8 214.615 139.8C211.215 139.8 207.819 139.804 204.419 139.812C203.674 139.812 203.192 139.609 202.753 138.978C199.675 134.555 197.267 129.81 195.679 124.654C194.361 120.376 193.561 116.019 193.377 111.532C193.236 108.06 193.35 104.607 193.891 101.19C194.565 96.9227 195.757 92.7888 197.475 88.7919C199.733 83.5383 202.772 78.8055 206.588 74.5658C211.623 68.9796 217.571 64.646 224.48 61.616C228.464 59.8661 232.605 58.6526 236.879 57.9479C240.636 57.3294 244.431 57.1493 248.239 57.439C249.686 57.5486 251.149 57.5956 252.568 57.854C255.14 58.3238 257.72 58.8053 260.234 59.5138C263.916 60.5473 267.406 62.0897 270.735 63.9844C275.527 66.7169 279.785 70.1109 283.518 74.1705C286.941 77.8933 289.773 82.0273 291.98 86.5683C293.6 89.9036 294.819 93.3877 295.705 97.001C296.988 102.251 297.466 107.571 297.031 112.934C296.807 115.698 296.246 118.442 295.69 121.163C294.627 126.369 292.513 131.18 289.804 135.733C289.106 136.907 288.302 138.019 287.577 139.174V139.182Z" fill="#19467C"></path>
    <path d="M228.3 125.83C228.167 125.74 228.013 125.65 227.846 125.564C227.679 125.479 227.512 125.402 227.344 125.329C227.181 125.256 227.019 125.201 226.86 125.162C226.701 125.119 226.568 125.102 226.457 125.102C225.647 125.102 225.244 125.406 225.244 126.01C225.244 126.159 225.304 126.296 225.419 126.42C225.535 126.545 225.685 126.656 225.865 126.759C226.045 126.861 226.243 126.955 226.457 127.045C226.671 127.135 226.877 127.225 227.083 127.315C227.486 127.495 227.842 127.674 228.15 127.858C228.459 128.042 228.716 128.239 228.922 128.453C229.128 128.667 229.282 128.898 229.385 129.151C229.488 129.403 229.535 129.686 229.535 130.011C229.535 130.499 229.436 130.91 229.235 131.252C229.038 131.595 228.78 131.869 228.472 132.078C228.159 132.288 227.812 132.438 227.426 132.532C227.04 132.626 226.663 132.673 226.294 132.673C225.715 132.673 225.141 132.571 224.566 132.365C223.992 132.16 223.435 131.787 222.894 131.248L223.919 129.934C224.099 130.123 224.288 130.285 224.485 130.426C224.682 130.568 224.879 130.687 225.068 130.782C225.261 130.876 225.445 130.944 225.625 130.996C225.805 131.043 225.968 131.068 226.11 131.068C226.273 131.068 226.444 131.056 226.62 131.026C226.796 130.996 226.954 130.94 227.096 130.863C227.237 130.786 227.357 130.679 227.451 130.542C227.546 130.409 227.593 130.23 227.593 130.016C227.593 129.913 227.554 129.806 227.481 129.707C227.404 129.605 227.301 129.51 227.173 129.416C227.04 129.322 226.89 129.232 226.718 129.142C226.547 129.053 226.363 128.963 226.165 128.873C225.844 128.723 225.509 128.56 225.171 128.389C224.828 128.218 224.519 128.021 224.245 127.799C223.966 127.576 223.739 127.323 223.559 127.041C223.379 126.759 223.289 126.429 223.289 126.052C223.289 125.564 223.379 125.158 223.559 124.833C223.739 124.507 223.97 124.246 224.258 124.054C224.541 123.861 224.866 123.724 225.227 123.643C225.587 123.566 225.947 123.523 226.307 123.523C226.868 123.523 227.383 123.613 227.842 123.797C228.305 123.981 228.738 124.203 229.141 124.465L228.309 125.834L228.3 125.83Z" fill="#DF5726"></path>
    <path d="M234.932 131.791C234.821 131.95 234.692 132.082 234.542 132.193C234.396 132.305 234.246 132.399 234.092 132.467C233.938 132.54 233.788 132.592 233.642 132.63C233.496 132.669 233.363 132.686 233.243 132.686C232.875 132.686 232.532 132.63 232.214 132.519C231.897 132.407 231.618 132.241 231.387 132.027C231.155 131.808 230.971 131.539 230.842 131.218C230.71 130.897 230.645 130.524 230.645 130.105V125.983H232.454V129.891C232.454 130.092 232.484 130.276 232.544 130.443C232.604 130.606 232.686 130.747 232.784 130.862C232.887 130.978 232.999 131.068 233.127 131.128C233.256 131.188 233.385 131.218 233.522 131.218C233.972 131.218 234.315 131.076 234.555 130.79C234.795 130.507 234.915 130.143 234.915 129.703V125.988H236.737V132.532H235.018L234.928 131.791H234.932Z" fill="#DF5726"></path>
    <path d="M241.792 125.83C242.233 125.83 242.632 125.915 242.988 126.086C243.343 126.258 243.648 126.497 243.897 126.805C244.149 127.114 244.342 127.473 244.475 127.888C244.608 128.303 244.677 128.753 244.677 129.228C244.677 130.336 244.424 131.188 243.914 131.787C243.403 132.386 242.696 132.686 241.787 132.686C241.384 132.686 241.041 132.605 240.758 132.446C240.475 132.284 240.253 132.082 240.077 131.834V134.911H238.242V125.988H239.974L240.077 126.75C240.248 126.467 240.48 126.24 240.767 126.078C241.054 125.915 241.393 125.83 241.783 125.83H241.792ZM241.444 127.199C241.256 127.199 241.08 127.246 240.917 127.345C240.754 127.443 240.608 127.571 240.488 127.738C240.368 127.901 240.274 128.098 240.205 128.316C240.137 128.539 240.103 128.77 240.103 129.018V129.592C240.115 129.844 240.158 130.08 240.223 130.293C240.287 130.507 240.377 130.692 240.493 130.85C240.608 131.008 240.75 131.128 240.921 131.214C241.089 131.299 241.286 131.342 241.513 131.342C241.753 131.342 241.959 131.278 242.13 131.145C242.302 131.013 242.443 130.846 242.55 130.644C242.658 130.443 242.739 130.216 242.786 129.964C242.833 129.711 242.859 129.467 242.859 129.228C242.859 128.928 242.833 128.654 242.782 128.402C242.73 128.149 242.649 127.935 242.533 127.756C242.422 127.576 242.276 127.439 242.096 127.34C241.916 127.242 241.697 127.195 241.444 127.195V127.199Z" fill="#DF5726"></path>
    <path d="M251.296 131.804C250.987 132.116 250.618 132.348 250.19 132.489C249.757 132.63 249.319 132.703 248.869 132.703C248.398 132.703 247.952 132.63 247.532 132.485C247.112 132.339 246.743 132.125 246.426 131.838C246.108 131.556 245.856 131.205 245.671 130.79C245.487 130.375 245.397 129.895 245.397 129.36C245.397 128.851 245.474 128.38 245.628 127.944C245.783 127.511 246.001 127.135 246.28 126.822C246.563 126.51 246.906 126.262 247.309 126.086C247.712 125.911 248.162 125.821 248.659 125.821C249.157 125.821 249.594 125.919 249.98 126.112C250.365 126.309 250.691 126.557 250.957 126.865C251.223 127.173 251.424 127.52 251.566 127.909C251.703 128.299 251.776 128.688 251.776 129.078V129.099C251.776 129.21 251.776 129.339 251.763 129.476C251.754 129.613 251.746 129.745 251.729 129.861H247.21C247.24 130.139 247.313 130.366 247.429 130.546C247.545 130.726 247.682 130.871 247.845 130.978C248.008 131.085 248.179 131.162 248.368 131.201C248.556 131.243 248.741 131.261 248.921 131.261C249.199 131.261 249.482 131.218 249.77 131.128C250.057 131.038 250.288 130.897 250.46 130.7L251.304 131.8L251.296 131.804ZM250.048 128.479C250.048 128.32 250.01 128.166 249.937 128.012C249.864 127.858 249.761 127.721 249.632 127.601C249.504 127.481 249.354 127.383 249.182 127.31C249.011 127.237 248.831 127.199 248.642 127.199C248.453 127.199 248.265 127.237 248.098 127.31C247.93 127.387 247.78 127.486 247.648 127.61C247.515 127.734 247.412 127.871 247.339 128.021C247.262 128.17 247.227 128.325 247.227 128.483H250.048V128.479Z" fill="#DF5726"></path>
    <path d="M254.657 126.784C254.846 126.493 255.107 126.258 255.446 126.082C255.784 125.907 256.144 125.817 256.526 125.817C256.607 125.817 256.706 125.821 256.826 125.834C256.942 125.847 257.04 125.86 257.122 125.873V127.512C257.049 127.499 256.95 127.482 256.83 127.473C256.71 127.46 256.607 127.456 256.517 127.456C256.307 127.456 256.093 127.486 255.874 127.542C255.656 127.597 255.459 127.683 255.283 127.798C255.107 127.914 254.961 128.064 254.85 128.244C254.738 128.423 254.683 128.637 254.683 128.886V132.523H252.848V125.988H254.558L254.661 126.784H254.657Z" fill="#DF5726"></path>
    <path d="M261.662 125.83C262.112 125.83 262.515 125.915 262.871 126.086C263.227 126.258 263.527 126.497 263.775 126.805C264.024 127.114 264.213 127.477 264.35 127.901C264.483 128.325 264.551 128.787 264.551 129.288C264.551 129.788 264.487 130.272 264.354 130.691C264.221 131.111 264.032 131.466 263.788 131.766C263.539 132.061 263.235 132.288 262.879 132.451C262.519 132.613 262.116 132.69 261.666 132.69C261.255 132.69 260.907 132.609 260.624 132.442C260.341 132.279 260.114 132.065 259.934 131.8L259.788 132.519H258.125V123.458H259.981V126.724C260.17 126.446 260.401 126.228 260.68 126.069C260.959 125.907 261.289 125.83 261.67 125.83H261.662ZM261.392 127.199C260.993 127.199 260.663 127.357 260.397 127.674C260.131 127.991 259.99 128.492 259.977 129.172V129.283C259.977 129.574 260.007 129.848 260.063 130.097C260.118 130.349 260.204 130.563 260.316 130.747C260.427 130.931 260.573 131.077 260.753 131.179C260.933 131.286 261.147 131.338 261.396 131.338C261.645 131.338 261.842 131.278 262.009 131.154C262.176 131.03 262.318 130.871 262.425 130.679C262.532 130.486 262.613 130.264 262.661 130.015C262.708 129.767 262.734 129.523 262.734 129.283C262.734 129.022 262.712 128.766 262.665 128.513C262.622 128.261 262.545 128.038 262.442 127.845C262.335 127.653 262.202 127.494 262.03 127.375C261.863 127.255 261.649 127.195 261.396 127.195L261.392 127.199Z" fill="#DF5726"></path>
    <path d="M229.213 106.651C229.213 104.928 229.361 103.31 229.651 101.793C229.94 100.276 230.431 98.9538 231.117 97.8263C231.803 96.693 232.702 95.8016 233.813 95.1464C234.925 94.4912 236.302 94.1665 237.946 94.1665C239.59 94.1665 240.968 94.503 242.079 95.1759C243.191 95.8488 244.084 96.7579 244.764 97.8972C245.438 99.0364 245.928 100.359 246.23 101.864C246.531 103.369 246.679 104.963 246.679 106.639C246.679 108.316 246.531 109.933 246.242 111.48C245.952 113.026 245.461 114.396 244.775 115.588C244.089 116.781 243.185 117.737 242.061 118.451C240.938 119.165 239.554 119.525 237.917 119.525C236.279 119.525 234.895 119.159 233.784 118.422C232.672 117.684 231.779 116.722 231.099 115.529C230.425 114.337 229.94 112.967 229.651 111.421C229.361 109.874 229.213 108.28 229.213 106.645V106.651ZM233.985 106.586C233.985 107.808 234.032 108.959 234.127 110.028C234.221 111.096 234.404 112.029 234.688 112.832C234.966 113.628 235.362 114.26 235.871 114.715C236.379 115.169 237.042 115.399 237.852 115.399C238.662 115.399 239.359 115.169 239.88 114.715C240.4 114.26 240.802 113.628 241.098 112.832C241.387 112.035 241.588 111.102 241.689 110.045C241.795 108.989 241.843 107.844 241.843 106.622C241.843 105.4 241.789 104.207 241.689 103.18C241.582 102.153 241.387 101.274 241.098 100.548C240.808 99.8215 240.406 99.2607 239.897 98.8652C239.389 98.4697 238.738 98.2749 237.946 98.2749C237.154 98.2749 236.503 98.4697 235.983 98.8652C235.463 99.2607 235.061 99.8215 234.765 100.548C234.475 101.274 234.268 102.153 234.156 103.18C234.044 104.207 233.985 105.341 233.985 106.586Z" fill="#DF5726"></path>
    <path d="M251.066 113.958H256.633V119.5H251.066V113.958Z" fill="#DF5726"></path>
    <path d="M258.717 106.651C258.717 104.928 258.865 103.31 259.154 101.793C259.444 100.276 259.935 98.9538 260.621 97.8263C261.307 96.693 262.205 95.8016 263.317 95.1464C264.429 94.4912 265.806 94.1665 267.45 94.1665C269.094 94.1665 270.471 94.503 271.583 95.1759C272.695 95.8488 273.587 96.7579 274.267 97.8972C274.942 99.0364 275.432 100.359 275.734 101.864C276.035 103.369 276.183 104.963 276.183 106.639C276.183 108.316 276.035 109.933 275.746 111.48C275.456 113.026 274.965 114.396 274.279 115.588C273.593 116.781 272.689 117.737 271.565 118.451C270.442 119.165 269.058 119.525 267.42 119.525C265.783 119.525 264.399 119.159 263.287 118.422C262.176 117.684 261.283 116.722 260.603 115.529C259.929 114.337 259.444 112.967 259.154 111.421C258.865 109.874 258.717 108.28 258.717 106.645V106.651ZM263.489 106.586C263.489 107.808 263.536 108.959 263.63 110.028C263.725 111.096 263.908 112.029 264.192 112.832C264.47 113.628 264.866 114.26 265.375 114.715C265.883 115.169 266.545 115.399 267.355 115.399C268.166 115.399 268.863 115.169 269.384 114.715C269.904 114.26 270.306 113.628 270.602 112.832C270.891 112.035 271.092 111.102 271.193 110.045C271.299 108.989 271.347 107.844 271.347 106.622C271.347 105.4 271.293 104.207 271.193 103.18C271.086 102.153 270.891 101.274 270.602 100.548C270.312 99.8215 269.91 99.2607 269.401 98.8652C268.893 98.4697 268.242 98.2749 267.45 98.2749C266.658 98.2749 266.007 98.4697 265.487 98.8652C264.967 99.2607 264.565 99.8215 264.269 100.548C263.979 101.274 263.772 102.153 263.66 103.18C263.548 104.207 263.489 105.341 263.489 106.586Z" fill="#DF5726"></path>
    <path d="M212.61 102.047C212.61 102.047 220.586 97.3539 221.243 94.3965H224.778V119.1H219.433V102.92C219.433 102.92 214.827 105.559 214.337 105.642L212.61 102.047Z" fill="#DF5726"></path>
    <path d="M249.255 86.7704H247.389L245.475 83.9594H244.678V86.7704H243.115V79.2769H245.938C246.304 79.2769 246.654 79.3312 246.984 79.436C247.315 79.5448 247.606 79.6962 247.859 79.8942C248.112 80.0922 248.314 80.3368 248.462 80.6241C248.61 80.9115 248.684 81.2298 248.684 81.5832C248.684 81.8278 248.645 82.0607 248.567 82.2782C248.489 82.4956 248.38 82.6975 248.244 82.8839C248.108 83.0702 247.945 83.2372 247.758 83.3809C247.568 83.5245 247.361 83.6449 247.144 83.7419L249.255 86.7704ZM245.899 82.682C246.059 82.682 246.21 82.6587 246.354 82.6121C246.498 82.5655 246.63 82.4956 246.743 82.3985C246.856 82.3053 246.949 82.1889 247.019 82.053C247.089 81.9171 247.124 81.7618 247.124 81.5832C247.124 81.4046 247.093 81.2531 247.031 81.125C246.969 80.9969 246.883 80.8882 246.774 80.8066C246.665 80.7251 246.541 80.663 246.401 80.6203C246.257 80.5776 246.109 80.5581 245.95 80.5581H244.678V82.6781H245.899V82.682Z" fill="#19467C"></path>
    <path d="M250.344 81.575C250.628 81.3926 250.94 81.2605 251.274 81.1829C251.608 81.1052 251.939 81.0664 252.258 81.0664C252.624 81.0664 252.962 81.1208 253.269 81.2334C253.576 81.3421 253.841 81.4935 254.059 81.6838C254.28 81.874 254.451 82.0953 254.576 82.3516C254.7 82.6078 254.763 82.8757 254.763 83.1592V85.45C254.763 85.5198 254.763 85.5936 254.766 85.6713C254.766 85.7489 254.778 85.8421 254.79 85.9469C254.801 86.0518 254.825 86.1682 254.852 86.3003C254.879 86.4323 254.918 86.5876 254.969 86.7623H253.366L253.281 86.0518C253.211 86.1838 253.117 86.3041 252.997 86.4051C252.876 86.5099 252.744 86.5992 252.604 86.6691C252.46 86.7429 252.316 86.7934 252.168 86.8283C252.021 86.8632 251.885 86.8788 251.764 86.8788C251.468 86.8788 251.192 86.84 250.943 86.7662C250.695 86.6924 250.477 86.572 250.294 86.4167C250.111 86.2576 249.967 86.0595 249.862 85.8188C249.757 85.5781 249.707 85.2946 249.707 84.9685C249.707 84.6074 249.773 84.3046 249.901 84.06C250.029 83.8153 250.208 83.6173 250.438 83.4698C250.663 83.3222 250.932 83.2135 251.239 83.1475C251.546 83.0815 251.877 83.0466 252.231 83.0466C252.39 83.0466 252.55 83.0543 252.713 83.066C252.876 83.0776 253.047 83.097 253.226 83.1242C253.219 82.9922 253.187 82.868 253.133 82.7554C253.075 82.6428 253.001 82.5418 252.904 82.4564C252.81 82.371 252.697 82.305 252.573 82.2584C252.445 82.2118 252.312 82.1885 252.176 82.1885C251.748 82.1885 251.34 82.2972 250.955 82.5185L250.348 81.5712L250.344 81.575ZM251.986 85.7683C252.137 85.7683 252.289 85.745 252.437 85.6946C252.585 85.6441 252.721 85.5742 252.841 85.481C252.962 85.3878 253.059 85.2791 253.129 85.151C253.203 85.0229 253.238 84.8792 253.238 84.72V84.1609C253.11 84.1415 252.989 84.126 252.869 84.1143C252.748 84.1027 252.624 84.0949 252.499 84.0949C252.316 84.0949 252.141 84.1104 251.978 84.1376C251.815 84.1648 251.667 84.2153 251.542 84.2852C251.414 84.355 251.313 84.4443 251.239 84.5531C251.165 84.6618 251.126 84.8054 251.126 84.9724C251.126 85.116 251.157 85.2403 251.216 85.3374C251.274 85.4344 251.348 85.516 251.433 85.582C251.519 85.648 251.612 85.6946 251.713 85.7256C251.815 85.7528 251.908 85.7683 251.99 85.7683H251.986Z" fill="#19467C"></path>
    <path d="M256.361 79.9562L257.952 79.502V81.2608H259.251V82.5188H257.952V84.6776C257.952 85.0387 258.061 85.2871 258.274 85.4269C258.488 85.5667 258.792 85.6055 259.184 85.5512V86.8092C258.819 86.848 258.465 86.8441 258.127 86.8053C257.788 86.7626 257.489 86.6694 257.224 86.5218C256.964 86.3743 256.754 86.1685 256.594 85.9006C256.435 85.6366 256.357 85.3027 256.357 84.9066V82.5227H255.474V81.2647H256.357V79.9601L256.361 79.9562Z" fill="#19467C"></path>
    <path d="M260.145 79.125H261.938V80.5927H260.145V79.125ZM260.266 81.2527H261.821V86.7584H260.266V81.2527Z" fill="#19467C"></path>
    <path d="M264.664 81.9166C264.758 81.7846 264.87 81.6681 264.995 81.571C265.119 81.474 265.251 81.3924 265.384 81.3264C265.516 81.2604 265.644 81.2099 265.773 81.175C265.897 81.14 266.014 81.1245 266.115 81.1245C266.426 81.1245 266.714 81.1711 266.982 81.2682C267.251 81.3614 267.484 81.505 267.682 81.6875C267.881 81.8739 268.036 82.1029 268.153 82.3747C268.266 82.6465 268.324 82.9571 268.324 83.3105V86.766H266.78V83.4929C266.78 83.3221 266.753 83.1668 266.706 83.0309C266.655 82.8911 266.589 82.7747 266.504 82.6776C266.418 82.5805 266.321 82.5029 266.216 82.4485C266.107 82.3941 265.998 82.367 265.885 82.367C265.508 82.367 265.216 82.4873 265.014 82.7281C264.812 82.9688 264.711 83.2755 264.711 83.656V86.7699H263.147V81.2643H264.54L264.672 81.9282L264.664 81.9166Z" fill="#19467C"></path>
    <path d="M271.595 81.1211C271.918 81.1211 272.194 81.1871 272.427 81.3152C272.66 81.4434 272.859 81.622 273.026 81.851L273.1 81.2531H274.558V86.1181C274.558 86.5025 274.488 86.8636 274.344 87.1975C274.2 87.5314 274.006 87.8226 273.761 88.0672C273.516 88.3118 273.22 88.506 272.886 88.6457C272.548 88.7855 272.182 88.8554 271.793 88.8554C271.439 88.8554 271.077 88.8049 270.712 88.7001C270.346 88.5953 269.989 88.4594 269.642 88.2885L270.144 87.2091C270.354 87.3179 270.591 87.4188 270.864 87.5198C271.136 87.6207 271.392 87.6712 271.63 87.6712C271.832 87.6712 272.019 87.6285 272.19 87.5431C272.361 87.4576 272.509 87.3412 272.629 87.1975C272.754 87.0538 272.847 86.8869 272.917 86.6966C272.987 86.5064 273.022 86.3084 273.022 86.0987V86.0715C272.87 86.2734 272.68 86.4326 272.45 86.5491C272.221 86.6656 271.933 86.7238 271.591 86.7238C270.825 86.7238 270.23 86.4792 269.798 85.99C269.37 85.5008 269.152 84.8174 269.152 83.9399C269.152 83.5167 269.211 83.1323 269.323 82.7868C269.436 82.4412 269.6 82.1422 269.806 81.8976C270.016 81.653 270.269 81.4628 270.568 81.3269C270.867 81.191 271.21 81.125 271.587 81.125L271.595 81.1211ZM271.832 82.2743C271.61 82.2743 271.427 82.3208 271.284 82.4101C271.14 82.5033 271.023 82.6237 270.937 82.779C270.852 82.9343 270.79 83.1129 270.751 83.3148C270.712 83.5167 270.692 83.7264 270.692 83.9399C270.692 84.1418 270.712 84.3437 270.755 84.5417C270.797 84.7398 270.864 84.9184 270.953 85.0775C271.046 85.2367 271.163 85.361 271.303 85.4542C271.447 85.5473 271.622 85.5978 271.828 85.5978C272.24 85.5978 272.54 85.4464 272.734 85.1436C272.929 84.8407 273.022 84.4408 273.022 83.9399V83.8545C273.014 83.5711 272.979 83.3303 272.917 83.1323C272.855 82.9343 272.769 82.7712 272.66 82.6431C272.551 82.5189 272.427 82.4257 272.287 82.3636C272.143 82.3053 271.991 82.2743 271.828 82.2743H271.832Z" fill="#19467C"></path>
    <path d="M220.26 86.62C220.228 86.3084 220.202 85.9968 220.177 85.6852C220.133 85.2106 220.093 84.7396 220.05 84.265C220.006 83.7795 219.963 83.294 219.919 82.8085C219.875 82.323 219.832 81.8376 219.788 81.3521C219.745 80.8702 219.705 80.3883 219.661 79.9101C219.625 79.5188 219.6 79.1239 219.556 78.7326C219.523 78.4464 219.393 78.3413 219.102 78.3341C218.816 78.3268 218.54 78.3884 218.271 78.4754C217.466 78.7326 216.784 79.1964 216.145 79.7326C215.31 80.4318 214.588 81.2397 213.931 82.1057C213.06 83.2578 212.313 84.4824 211.717 85.8012C211.569 86.1272 211.445 86.4642 211.307 86.7975V86.8192C212.044 86.8192 212.781 86.8192 213.517 86.8192C213.594 86.8192 213.633 86.8011 213.663 86.725C213.822 86.3011 214.011 85.8917 214.214 85.486C214.261 85.3954 214.312 85.3591 214.417 85.3591C215.517 85.3628 216.613 85.3591 217.709 85.3591C217.738 85.3591 217.763 85.3591 217.789 85.3591C217.84 85.3591 217.865 85.3809 217.869 85.4352C217.898 85.8519 217.934 86.2685 217.959 86.6852C217.967 86.7939 217.999 86.8192 218.105 86.8192C218.769 86.8156 219.433 86.8192 220.093 86.8192C220.286 86.8192 220.278 86.8192 220.26 86.6236V86.62ZM217.615 83.5331C217.255 83.5331 216.892 83.5331 216.533 83.5331C216.174 83.5331 215.811 83.5331 215.452 83.5331C215.423 83.5331 215.383 83.5476 215.365 83.5186C215.343 83.486 215.379 83.4607 215.394 83.4389C215.934 82.6382 216.519 81.8774 217.219 81.2108C217.284 81.1492 217.35 81.0912 217.419 81.0332C217.44 81.0115 217.466 80.9898 217.502 81.0043C217.535 81.0187 217.542 81.0477 217.546 81.0803C217.586 81.6057 217.622 82.1274 217.662 82.6527C217.68 82.91 217.694 83.1708 217.72 83.4281C217.727 83.5186 217.702 83.544 217.615 83.544V83.5331Z" fill="#19467C"></path>
    <path d="M240.997 82.8482C240.572 81.1562 238.954 80.1056 237.222 80.4026C235.459 80.7034 234.272 82.3337 234.533 84.1018C234.726 85.3952 235.68 86.4495 236.95 86.7719C237.168 86.8263 237.389 86.848 237.611 86.8843H237.985C238.133 86.8625 238.282 86.8444 238.431 86.8154C240.253 86.4893 241.45 84.6416 241 82.8482H240.997ZM237.741 85.0003C237.201 84.993 236.711 84.6162 236.533 84.0728C236.322 83.4279 236.584 82.7141 237.15 82.3917C237.901 81.9642 238.852 82.3881 239.073 83.2467C239.106 83.3699 239.124 83.4967 239.12 83.6235C239.12 84.3989 238.507 85.0075 237.741 84.9967V85.0003Z" fill="#19467C"></path>
    <path d="M229.108 80.4499C229.413 80.4499 229.721 80.4535 230.026 80.4499C230.12 80.4499 230.146 80.4861 230.153 80.5658C230.178 80.9173 230.204 81.2687 230.229 81.6165C230.266 82.0875 230.302 82.5585 230.338 83.0259C230.364 83.3809 230.389 83.736 230.414 84.0911C230.414 84.1164 230.414 84.1454 230.418 84.1708C230.422 84.207 230.418 84.2541 230.462 84.2686C230.498 84.2831 230.523 84.2432 230.549 84.2215C230.875 83.9353 231.126 83.5875 231.329 83.207C231.674 82.5549 231.88 81.8593 232.018 81.1383C232.055 80.9426 232.084 80.7434 232.113 80.5441C232.124 80.4753 232.149 80.4463 232.225 80.4463C232.868 80.4463 233.514 80.4499 234.156 80.4463C234.283 80.4463 234.254 80.526 234.25 80.5948C234.203 81.1492 234.098 81.6962 233.927 82.2288C233.532 83.4751 232.911 84.591 231.975 85.5149C231.376 86.1055 230.687 86.5547 229.855 86.7504C229.551 86.8228 229.239 86.8736 228.923 86.8373C228.716 86.8156 228.618 86.7033 228.6 86.4931C228.513 85.5222 228.426 84.5548 228.339 83.5838C228.259 82.6962 228.172 81.8049 228.092 80.9173C228.081 80.7977 228.077 80.6782 228.063 80.5586C228.048 80.4572 228.092 80.4427 228.175 80.4463C228.484 80.4499 228.796 80.4463 229.108 80.4463V80.4499Z" fill="#19467C"></path>
    <path d="M222.202 80.4498C222.503 80.4498 222.808 80.4498 223.109 80.4498C223.2 80.4498 223.24 80.4752 223.247 80.5694C223.276 81.015 223.312 81.4643 223.345 81.9099C223.381 82.3845 223.417 82.8592 223.454 83.3302C223.472 83.5946 223.49 83.8627 223.508 84.1272C223.508 84.1779 223.497 84.2432 223.544 84.2649C223.599 84.2903 223.632 84.2287 223.668 84.1961C224.161 83.7468 224.474 83.1816 224.709 82.5693C224.963 81.9172 225.116 81.2433 225.203 80.5513C225.214 80.4716 225.247 80.4426 225.33 80.4426C225.954 80.4426 226.578 80.4426 227.203 80.4426C227.304 80.4426 227.35 80.4957 227.341 80.602C227.279 81.2795 227.134 81.9353 226.901 82.5729C226.495 83.6816 225.911 84.6779 225.065 85.5076C224.437 86.1271 223.711 86.5873 222.833 86.7684C222.568 86.8228 222.3 86.8662 222.028 86.8336C221.806 86.8083 221.712 86.696 221.694 86.4749C221.617 85.6416 221.541 84.8047 221.465 83.9714C221.4 83.2468 221.338 82.5258 221.273 81.8012C221.236 81.3882 221.196 80.9788 221.157 80.5658C221.146 80.4679 221.175 80.439 221.276 80.439C221.585 80.4462 221.897 80.439 222.205 80.439L222.202 80.4498Z" fill="#19467C"></path>
    <path d="M224.171 147.012H222.398V152.116H221.124V147.012H219.375V145.951H224.171V147.012Z" fill="white"></path>
    <path d="M226.045 147.474C226.362 147.474 226.661 147.525 226.939 147.63C227.217 147.736 227.457 147.889 227.66 148.088C227.864 148.292 228.025 148.542 228.139 148.84C228.256 149.137 228.315 149.482 228.315 149.873C228.315 150.265 228.256 150.598 228.139 150.895C228.021 151.193 227.86 151.439 227.66 151.639C227.457 151.839 227.217 151.991 226.939 152.089C226.661 152.191 226.362 152.242 226.045 152.242C225.68 152.242 225.359 152.179 225.076 152.05C224.794 151.921 224.559 151.752 224.371 151.537C224.182 151.322 224.037 151.071 223.935 150.785C223.837 150.5 223.786 150.194 223.786 149.873C223.786 149.478 223.845 149.133 223.963 148.832C224.08 148.535 224.241 148.284 224.441 148.08C224.641 147.877 224.884 147.724 225.159 147.626C225.433 147.525 225.727 147.474 226.041 147.474H226.045ZM226.045 148.441C225.904 148.441 225.77 148.472 225.645 148.538C225.519 148.605 225.41 148.699 225.308 148.82C225.21 148.942 225.131 149.09 225.072 149.27C225.014 149.447 224.986 149.65 224.986 149.877C224.986 150.046 225.01 150.21 225.057 150.374C225.104 150.543 225.17 150.692 225.261 150.825C225.351 150.958 225.461 151.063 225.594 151.15C225.727 151.232 225.876 151.275 226.045 151.275C226.221 151.275 226.378 151.232 226.508 151.15C226.641 151.067 226.751 150.958 226.841 150.825C226.931 150.692 226.998 150.543 227.045 150.374C227.092 150.21 227.115 150.042 227.115 149.877C227.115 149.701 227.092 149.525 227.049 149.357C227.006 149.184 226.939 149.032 226.849 148.899C226.759 148.762 226.649 148.656 226.512 148.57C226.374 148.488 226.221 148.444 226.045 148.444V148.441Z" fill="white"></path>
    <path d="M231.542 147.474C231.848 147.474 232.127 147.532 232.374 147.654C232.621 147.775 232.833 147.939 233.005 148.151C233.178 148.362 233.315 148.613 233.409 148.903C233.503 149.192 233.55 149.501 233.55 149.834C233.55 150.601 233.374 151.197 233.021 151.611C232.668 152.026 232.174 152.234 231.546 152.234C231.264 152.234 231.029 152.179 230.833 152.066C230.637 151.952 230.48 151.811 230.362 151.639V153.776H229.088V147.579H230.292L230.362 148.108C230.484 147.912 230.641 147.755 230.841 147.642C231.041 147.528 231.276 147.47 231.546 147.47L231.542 147.474ZM231.299 148.425C231.17 148.425 231.048 148.46 230.931 148.527C230.817 148.593 230.719 148.687 230.633 148.801C230.55 148.914 230.484 149.047 230.437 149.204C230.39 149.357 230.366 149.521 230.366 149.689V150.089C230.378 150.265 230.405 150.429 230.448 150.574C230.492 150.723 230.554 150.852 230.637 150.962C230.719 151.071 230.817 151.153 230.935 151.216C231.052 151.275 231.19 151.306 231.346 151.306C231.511 151.306 231.656 151.259 231.778 151.169C231.899 151.079 231.993 150.962 232.072 150.821C232.146 150.68 232.201 150.523 232.237 150.351C232.272 150.179 232.287 150.006 232.287 149.842C232.287 149.635 232.268 149.443 232.233 149.27C232.197 149.098 232.138 148.946 232.06 148.82C231.982 148.695 231.88 148.601 231.754 148.531C231.629 148.464 231.48 148.429 231.303 148.429L231.299 148.425Z" fill="white"></path>
    <path d="M238.765 145.955H239.906L242.302 152.12H240.949L240.412 150.758H238.263L237.734 152.12H236.381L238.761 145.955H238.765ZM240.004 149.67L239.334 147.744L238.671 149.67H240.008H240.004Z" fill="white"></path>
    <path d="M242.839 146.514L244.153 146.139V147.587H245.224V148.625H244.153V150.402C244.153 150.699 244.243 150.903 244.42 151.016C244.596 151.13 244.847 151.165 245.169 151.118V152.156C244.867 152.187 244.577 152.187 244.298 152.156C244.02 152.12 243.773 152.042 243.557 151.921C243.341 151.799 243.169 151.627 243.039 151.412C242.91 151.193 242.843 150.922 242.843 150.594V148.628H242.118V147.591H242.843V146.514H242.839Z" fill="white"></path>
    <path d="M246.29 146.514L247.604 146.139V147.587H248.674V148.625H247.604V150.402C247.604 150.699 247.694 150.903 247.87 151.016C248.047 151.13 248.298 151.165 248.619 151.118V152.156C248.317 152.187 248.027 152.187 247.749 152.156C247.47 152.12 247.223 152.042 247.008 151.921C246.792 151.799 246.619 151.627 246.49 151.412C246.361 151.193 246.294 150.922 246.294 150.594V148.628H245.569V147.591H246.294V146.514H246.29Z" fill="white"></path>
    <path d="M251.368 147.474C251.686 147.474 251.984 147.525 252.262 147.63C252.541 147.736 252.78 147.889 252.984 148.088C253.188 148.292 253.348 148.542 253.462 148.84C253.58 149.137 253.639 149.482 253.639 149.873C253.639 150.265 253.58 150.598 253.462 150.895C253.344 151.193 253.184 151.439 252.984 151.639C252.78 151.839 252.541 151.991 252.262 152.089C251.984 152.191 251.686 152.242 251.368 152.242C251.003 152.242 250.682 152.179 250.4 152.05C250.117 151.921 249.882 151.752 249.694 151.537C249.506 151.322 249.36 151.071 249.258 150.785C249.16 150.5 249.109 150.194 249.109 149.873C249.109 149.478 249.168 149.133 249.286 148.832C249.404 148.535 249.564 148.284 249.764 148.08C249.964 147.877 250.207 147.724 250.482 147.626C250.756 147.525 251.051 147.474 251.364 147.474H251.368ZM251.368 148.441C251.227 148.441 251.094 148.472 250.968 148.538C250.843 148.605 250.733 148.699 250.631 148.82C250.533 148.942 250.454 149.09 250.396 149.27C250.337 149.447 250.309 149.65 250.309 149.877C250.309 150.046 250.333 150.21 250.38 150.374C250.427 150.543 250.494 150.692 250.584 150.825C250.674 150.958 250.784 151.063 250.917 151.15C251.051 151.232 251.2 151.275 251.368 151.275C251.545 151.275 251.701 151.232 251.831 151.15C251.964 151.067 252.074 150.958 252.164 150.825C252.254 150.692 252.321 150.543 252.368 150.374C252.415 150.21 252.439 150.042 252.439 149.877C252.439 149.701 252.415 149.525 252.372 149.357C252.329 149.184 252.262 149.032 252.172 148.899C252.082 148.762 251.972 148.656 251.835 148.57C251.698 148.488 251.545 148.444 251.368 148.444V148.441Z" fill="white"></path>
    <path d="M255.662 148.135C255.791 147.932 255.976 147.771 256.207 147.65C256.442 147.528 256.689 147.466 256.956 147.466C257.015 147.466 257.081 147.466 257.164 147.478C257.246 147.485 257.313 147.493 257.371 147.505V148.644C257.32 148.632 257.25 148.625 257.168 148.617C257.085 148.609 257.011 148.605 256.948 148.605C256.803 148.605 256.654 148.625 256.501 148.664C256.348 148.703 256.215 148.762 256.089 148.844C255.968 148.926 255.866 149.028 255.787 149.153C255.709 149.278 255.67 149.427 255.67 149.599V152.124H254.395V147.587H255.583L255.654 148.139L255.662 148.135Z" fill="white"></path>
    <path d="M259.324 148.127C259.403 148.018 259.493 147.924 259.599 147.842C259.705 147.759 259.81 147.693 259.92 147.638C260.03 147.583 260.136 147.54 260.242 147.513C260.348 147.485 260.438 147.47 260.524 147.47C260.779 147.47 261.018 147.509 261.238 147.587C261.457 147.665 261.653 147.779 261.814 147.936C261.979 148.088 262.108 148.276 262.202 148.499C262.297 148.722 262.344 148.981 262.344 149.27V152.116H261.069V149.419C261.069 149.278 261.05 149.153 261.006 149.036C260.963 148.922 260.908 148.824 260.838 148.742C260.767 148.66 260.689 148.601 260.599 148.554C260.508 148.511 260.418 148.488 260.324 148.488C260.01 148.488 259.771 148.585 259.607 148.785C259.438 148.981 259.356 149.235 259.356 149.548V152.113H258.066V147.575H259.214L259.324 148.12V148.127Z" fill="white"></path>
    <path d="M267.147 151.619C266.935 151.839 266.677 151.995 266.379 152.093C266.081 152.191 265.775 152.242 265.461 152.242C265.132 152.242 264.822 152.191 264.532 152.089C264.241 151.987 263.983 151.839 263.763 151.639C263.544 151.443 263.367 151.197 263.242 150.911C263.112 150.621 263.049 150.292 263.049 149.916C263.049 149.564 263.104 149.235 263.21 148.934C263.316 148.632 263.469 148.374 263.661 148.155C263.857 147.936 264.096 147.767 264.375 147.646C264.657 147.525 264.967 147.462 265.312 147.462C265.657 147.462 265.963 147.528 266.23 147.665C266.496 147.802 266.724 147.975 266.908 148.186C267.092 148.398 267.233 148.64 267.331 148.91C267.429 149.18 267.476 149.451 267.476 149.721V149.736C267.476 149.815 267.476 149.901 267.469 149.999C267.465 150.097 267.457 150.183 267.445 150.269H264.304C264.324 150.461 264.375 150.621 264.457 150.742C264.54 150.868 264.634 150.966 264.747 151.044C264.861 151.118 264.979 151.173 265.112 151.2C265.241 151.228 265.371 151.244 265.496 151.244C265.688 151.244 265.884 151.212 266.084 151.15C266.284 151.087 266.445 150.989 266.563 150.852L267.147 151.615V151.619ZM266.281 149.314C266.281 149.204 266.253 149.098 266.202 148.989C266.151 148.883 266.081 148.789 265.99 148.703C265.9 148.621 265.798 148.554 265.677 148.499C265.555 148.448 265.434 148.421 265.3 148.421C265.167 148.421 265.037 148.448 264.92 148.499C264.802 148.55 264.7 148.621 264.606 148.707C264.516 148.793 264.441 148.887 264.39 148.993C264.34 149.098 264.312 149.204 264.312 149.314H266.273H266.281Z" fill="white"></path>
    <path d="M267.927 152.837C268.343 152.743 268.673 152.609 268.916 152.437C269.159 152.265 269.327 152.03 269.425 151.729L267.802 147.583H269.108L270.061 150.171L270.982 147.583H272.288L270.79 151.553C270.7 151.787 270.61 151.999 270.508 152.191C270.406 152.382 270.312 152.555 270.21 152.703C270.084 152.891 269.947 153.048 269.798 153.173C269.649 153.302 269.492 153.408 269.331 153.498C269.167 153.588 268.998 153.659 268.829 153.713C268.657 153.768 268.488 153.815 268.324 153.858L267.931 152.837H267.927Z" fill="white"></path>
    <path d="M213.05 161.472H211.76V155.307H213.05V161.472Z" fill="white"></path>
    <path d="M215.465 157.483C215.544 157.374 215.634 157.28 215.74 157.198C215.846 157.115 215.952 157.049 216.062 156.994C216.171 156.939 216.277 156.896 216.383 156.869C216.489 156.841 216.579 156.826 216.665 156.826C216.92 156.826 217.159 156.865 217.379 156.943C217.599 157.021 217.795 157.135 217.955 157.292C218.12 157.444 218.25 157.632 218.344 157.855C218.438 158.078 218.485 158.337 218.485 158.626V161.472H217.21V158.775C217.21 158.634 217.191 158.509 217.148 158.392C217.105 158.278 217.05 158.18 216.979 158.098C216.909 158.016 216.83 157.957 216.74 157.91C216.65 157.867 216.56 157.844 216.465 157.844C216.152 157.844 215.913 157.941 215.748 158.141C215.579 158.337 215.497 158.591 215.497 158.904V161.469H214.207V156.931H215.356L215.465 157.476V157.483Z" fill="white"></path>
    <path d="M221.234 159.656L222.131 156.943H223.496L221.771 161.473H220.7L218.998 156.943H220.296L221.234 159.656Z" fill="white"></path>
    <path d="M227.833 160.975C227.621 161.195 227.362 161.351 227.064 161.449C226.766 161.547 226.461 161.598 226.147 161.598C225.818 161.598 225.508 161.547 225.218 161.445C224.927 161.343 224.669 161.194 224.449 160.995C224.229 160.799 224.053 160.552 223.927 160.267C223.798 159.977 223.735 159.648 223.735 159.272C223.735 158.92 223.79 158.591 223.896 158.29C224.002 157.988 224.155 157.73 224.347 157.511C224.543 157.292 224.782 157.123 225.061 157.002C225.343 156.881 225.653 156.818 225.998 156.818C226.343 156.818 226.649 156.884 226.915 157.021C227.182 157.158 227.41 157.331 227.594 157.542C227.778 157.753 227.919 157.996 228.017 158.266C228.115 158.536 228.162 158.807 228.162 159.077V159.092C228.162 159.171 228.162 159.257 228.155 159.355C228.151 159.452 228.143 159.539 228.131 159.625H224.99C225.01 159.817 225.061 159.977 225.143 160.098C225.225 160.224 225.32 160.322 225.433 160.4C225.547 160.474 225.665 160.529 225.798 160.556C225.927 160.584 226.057 160.599 226.182 160.599C226.374 160.599 226.57 160.568 226.77 160.506C226.97 160.443 227.131 160.345 227.249 160.208L227.833 160.971V160.975ZM226.966 158.666C226.966 158.556 226.939 158.45 226.888 158.341C226.837 158.235 226.766 158.141 226.676 158.055C226.586 157.973 226.484 157.906 226.363 157.851C226.241 157.8 226.119 157.773 225.986 157.773C225.853 157.773 225.723 157.8 225.606 157.851C225.488 157.902 225.386 157.973 225.292 158.059C225.202 158.145 225.127 158.239 225.076 158.345C225.025 158.45 224.998 158.556 224.998 158.666H226.959H226.966Z" fill="white"></path>
    <path d="M231.448 158.208C231.374 158.145 231.291 158.09 231.201 158.039C231.111 157.988 231.017 157.945 230.923 157.91C230.829 157.875 230.742 157.844 230.656 157.824C230.574 157.804 230.503 157.793 230.452 157.793C230.315 157.793 230.205 157.82 230.111 157.875C230.021 157.93 229.974 158.016 229.974 158.129C229.974 158.243 230.052 158.341 230.205 158.439C230.358 158.536 230.554 158.642 230.786 158.764C230.966 158.854 231.142 158.94 231.307 159.034C231.472 159.124 231.621 159.225 231.754 159.335C231.884 159.445 231.986 159.57 232.064 159.711C232.138 159.852 232.178 160.016 232.178 160.2C232.178 160.474 232.123 160.705 232.013 160.885C231.903 161.065 231.762 161.21 231.589 161.32C231.417 161.426 231.229 161.5 231.025 161.547C230.821 161.59 230.621 161.613 230.429 161.613C230.095 161.613 229.766 161.551 229.437 161.429C229.107 161.308 228.794 161.101 228.492 160.811L229.17 159.977C229.245 160.055 229.327 160.13 229.429 160.204C229.527 160.279 229.633 160.341 229.743 160.4C229.852 160.459 229.958 160.502 230.068 160.537C230.174 160.572 230.268 160.588 230.354 160.588C230.499 160.588 230.617 160.556 230.707 160.494C230.797 160.431 230.841 160.349 230.841 160.243C230.841 160.118 230.778 160.008 230.648 159.911C230.519 159.813 230.35 159.723 230.139 159.633C229.978 159.558 229.813 159.48 229.645 159.39C229.476 159.3 229.323 159.202 229.186 159.088C229.049 158.975 228.935 158.846 228.845 158.697C228.754 158.548 228.711 158.38 228.711 158.196C228.711 157.945 228.766 157.734 228.872 157.558C228.978 157.382 229.115 157.237 229.28 157.123C229.445 157.01 229.625 156.931 229.825 156.877C230.025 156.826 230.221 156.798 230.405 156.798C230.68 156.798 230.966 156.853 231.26 156.967C231.554 157.08 231.809 157.217 232.029 157.386L231.452 158.212L231.448 158.208Z" fill="white"></path>
    <path d="M233.134 155.87L234.448 155.495V156.943H235.519V157.98H234.448V159.758C234.448 160.055 234.538 160.259 234.715 160.372C234.891 160.486 235.142 160.521 235.464 160.474V161.512C235.162 161.543 234.872 161.543 234.593 161.512C234.315 161.476 234.068 161.398 233.852 161.277C233.636 161.155 233.464 160.983 233.334 160.768C233.205 160.549 233.138 160.278 233.138 159.95V157.984H232.413V156.947H233.138V155.87H233.134Z" fill="white"></path>
    <path d="M237.554 157.499C237.695 157.26 237.863 157.088 238.063 156.99C238.263 156.888 238.444 156.837 238.605 156.837C238.734 156.837 238.859 156.857 238.985 156.9C239.106 156.943 239.216 156.998 239.318 157.064C239.416 157.131 239.506 157.209 239.585 157.299C239.663 157.389 239.726 157.479 239.773 157.573C239.887 157.35 240.048 157.17 240.255 157.041C240.463 156.908 240.675 156.841 240.887 156.841C241.098 156.841 241.322 156.877 241.514 156.947C241.71 157.017 241.879 157.119 242.02 157.26C242.165 157.397 242.275 157.569 242.361 157.773C242.443 157.977 242.487 158.215 242.487 158.485V161.48H241.228V158.572C241.228 158.395 241.173 158.239 241.063 158.11C240.953 157.977 240.812 157.91 240.64 157.91C240.467 157.91 240.326 157.984 240.2 158.133C240.075 158.282 240.012 158.489 240.012 158.752V161.48H238.777V158.634C238.777 158.415 238.718 158.239 238.605 158.11C238.491 157.977 238.35 157.91 238.181 157.91C238.024 157.91 237.879 157.973 237.746 158.102C237.612 158.231 237.546 158.435 237.546 158.713V161.48H236.287V156.943H237.444L237.538 157.503L237.554 157.499Z" fill="white"></path>
    <path d="M247.298 160.975C247.086 161.195 246.827 161.351 246.529 161.449C246.231 161.547 245.925 161.598 245.612 161.598C245.282 161.598 244.973 161.547 244.682 161.445C244.392 161.343 244.133 161.194 243.914 160.995C243.694 160.799 243.518 160.552 243.392 160.267C243.263 159.977 243.2 159.648 243.2 159.272C243.2 158.92 243.255 158.591 243.361 158.29C243.467 157.988 243.62 157.73 243.812 157.511C244.008 157.292 244.247 157.123 244.526 157.002C244.808 156.881 245.118 156.818 245.463 156.818C245.808 156.818 246.114 156.884 246.38 157.021C246.647 157.158 246.874 157.331 247.059 157.542C247.243 157.753 247.384 157.996 247.482 158.266C247.58 158.536 247.627 158.807 247.627 159.077V159.092C247.627 159.171 247.627 159.257 247.619 159.355C247.615 159.452 247.608 159.539 247.596 159.625H244.455C244.475 159.817 244.526 159.977 244.608 160.098C244.69 160.224 244.784 160.322 244.898 160.4C245.012 160.474 245.129 160.529 245.263 160.556C245.392 160.584 245.522 160.599 245.647 160.599C245.839 160.599 246.035 160.568 246.235 160.506C246.435 160.443 246.596 160.345 246.714 160.208L247.298 160.971V160.975ZM246.431 158.666C246.431 158.556 246.404 158.45 246.353 158.341C246.302 158.235 246.231 158.141 246.141 158.055C246.051 157.973 245.949 157.906 245.827 157.851C245.706 157.8 245.584 157.773 245.451 157.773C245.318 157.773 245.188 157.8 245.071 157.851C244.953 157.902 244.851 157.973 244.757 158.059C244.667 158.145 244.592 158.239 244.541 158.345C244.49 158.45 244.463 158.556 244.463 158.666H246.423H246.431Z" fill="white"></path>
    <path d="M249.635 157.483C249.713 157.374 249.804 157.28 249.909 157.198C250.015 157.115 250.121 157.049 250.231 156.994C250.341 156.939 250.447 156.896 250.552 156.869C250.658 156.841 250.749 156.826 250.835 156.826C251.09 156.826 251.329 156.865 251.548 156.943C251.768 157.021 251.964 157.135 252.125 157.292C252.29 157.444 252.419 157.632 252.513 157.855C252.607 158.078 252.654 158.337 252.654 158.626V161.472H251.38V158.775C251.38 158.634 251.36 158.509 251.317 158.392C251.274 158.278 251.219 158.18 251.149 158.098C251.078 158.016 251 157.957 250.909 157.91C250.819 157.867 250.729 157.844 250.635 157.844C250.321 157.844 250.082 157.941 249.917 158.141C249.749 158.337 249.666 158.591 249.666 158.904V161.469H248.376V156.931H249.525L249.635 157.476V157.483Z" fill="white"></path>
    <path d="M253.897 155.87L255.211 155.495V156.943H256.281V157.98H255.211V159.758C255.211 160.055 255.301 160.259 255.478 160.372C255.654 160.486 255.905 160.521 256.226 160.474V161.512C255.925 161.543 255.634 161.543 255.356 161.512C255.078 161.476 254.831 161.398 254.615 161.277C254.399 161.155 254.227 160.983 254.097 160.768C253.968 160.549 253.901 160.278 253.901 159.95V157.984H253.176V156.947H253.901V155.87H253.897Z" fill="white"></path>
    <path d="M263.893 156.368H261.01V157.753H263.728V158.806H261.01V161.472H259.72V155.307H263.889V156.368H263.893Z" fill="white"></path>
    <path d="M265.884 157.491C266.014 157.288 266.198 157.127 266.43 157.006C266.665 156.884 266.912 156.822 267.178 156.822C267.237 156.822 267.304 156.822 267.386 156.834C267.469 156.841 267.535 156.849 267.594 156.861V158C267.543 157.988 267.473 157.981 267.39 157.973C267.308 157.965 267.233 157.961 267.171 157.961C267.026 157.961 266.877 157.981 266.724 158.02C266.571 158.059 266.437 158.118 266.312 158.2C266.19 158.282 266.088 158.384 266.01 158.509C265.932 158.634 265.892 158.783 265.892 158.955V161.48H264.618V156.943H265.806L265.877 157.495L265.884 157.491Z" fill="white"></path>
    <path d="M268.28 157.202C268.516 157.053 268.771 156.943 269.045 156.877C269.319 156.81 269.59 156.779 269.857 156.779C270.159 156.779 270.437 156.826 270.688 156.916C270.939 157.006 271.159 157.131 271.339 157.288C271.519 157.444 271.664 157.628 271.766 157.836C271.868 158.047 271.919 158.27 271.919 158.501V160.388C271.919 160.447 271.919 160.506 271.919 160.572C271.919 160.639 271.927 160.713 271.939 160.799C271.951 160.885 271.966 160.983 271.99 161.093C272.013 161.202 272.045 161.328 272.088 161.476H270.766L270.696 160.893C270.637 161.003 270.559 161.101 270.461 161.187C270.363 161.273 270.253 161.347 270.135 161.406C270.017 161.465 269.9 161.512 269.774 161.539C269.653 161.566 269.543 161.582 269.441 161.582C269.198 161.582 268.97 161.551 268.767 161.488C268.563 161.426 268.382 161.332 268.233 161.199C268.08 161.069 267.963 160.905 267.876 160.709C267.79 160.513 267.747 160.279 267.747 160.008C267.747 159.711 267.802 159.464 267.908 159.261C268.014 159.057 268.163 158.897 268.351 158.775C268.539 158.654 268.759 158.564 269.01 158.509C269.261 158.454 269.535 158.427 269.825 158.427C269.955 158.427 270.088 158.431 270.225 158.443C270.363 158.454 270.5 158.47 270.649 158.49C270.645 158.38 270.617 158.278 270.57 158.184C270.523 158.09 270.461 158.008 270.382 157.938C270.304 157.867 270.214 157.812 270.108 157.773C270.002 157.734 269.896 157.714 269.778 157.714C269.425 157.714 269.088 157.804 268.771 157.988L268.273 157.209L268.28 157.202ZM269.629 160.654C269.755 160.654 269.876 160.635 270.002 160.592C270.123 160.549 270.233 160.49 270.335 160.416C270.433 160.341 270.512 160.251 270.574 160.142C270.633 160.036 270.664 159.918 270.664 159.785V159.327C270.559 159.312 270.461 159.3 270.359 159.288C270.261 159.276 270.159 159.272 270.053 159.272C269.9 159.272 269.759 159.284 269.621 159.308C269.484 159.331 269.367 159.37 269.261 159.429C269.155 159.488 269.072 159.562 269.01 159.652C268.947 159.742 268.916 159.86 268.916 160.001C268.916 160.122 268.939 160.22 268.99 160.302C269.041 160.384 269.1 160.451 269.17 160.506C269.241 160.56 269.316 160.6 269.402 160.623C269.484 160.647 269.559 160.658 269.629 160.658V160.654Z" fill="white"></path>
    <path d="M275.884 160.968C275.805 161.077 275.715 161.171 275.613 161.25C275.511 161.328 275.409 161.39 275.299 161.441C275.193 161.492 275.088 161.527 274.986 161.555C274.884 161.582 274.793 161.594 274.707 161.594C274.452 161.594 274.213 161.555 273.994 161.477C273.774 161.398 273.582 161.285 273.421 161.132C273.26 160.983 273.135 160.795 273.041 160.572C272.95 160.349 272.903 160.091 272.903 159.801V156.939H274.162V159.652C274.162 159.793 274.182 159.919 274.225 160.036C274.268 160.15 274.323 160.247 274.394 160.33C274.464 160.412 274.543 160.471 274.633 160.514C274.723 160.557 274.813 160.576 274.907 160.576C275.221 160.576 275.46 160.478 275.625 160.279C275.789 160.083 275.876 159.828 275.876 159.523V156.943H277.142V161.488H275.946L275.884 160.976V160.968Z" fill="white"></path>
    <path d="M281.118 155.182H282.393V161.473H281.252L281.142 160.975C281.016 161.155 280.856 161.304 280.664 161.422C280.468 161.535 280.228 161.594 279.942 161.594C279.628 161.594 279.35 161.539 279.103 161.426C278.856 161.312 278.648 161.155 278.476 160.952C278.303 160.748 278.174 160.498 278.079 160.208C277.989 159.918 277.942 159.594 277.942 159.233C277.942 158.873 277.989 158.564 278.083 158.27C278.178 157.977 278.311 157.722 278.483 157.511C278.656 157.299 278.864 157.131 279.111 157.014C279.358 156.892 279.636 156.834 279.942 156.834C280.213 156.834 280.444 156.888 280.636 157.002C280.828 157.116 280.989 157.264 281.118 157.456V155.189V155.182ZM280.134 157.777C279.958 157.777 279.809 157.82 279.687 157.902C279.566 157.985 279.472 158.094 279.397 158.231C279.323 158.368 279.272 158.521 279.24 158.693C279.209 158.865 279.193 159.045 279.193 159.226C279.193 159.394 279.209 159.562 279.244 159.731C279.279 159.903 279.334 160.055 279.409 160.189C279.483 160.326 279.581 160.435 279.703 160.521C279.824 160.607 279.966 160.65 280.134 160.65C280.303 160.65 280.452 160.615 280.577 160.541C280.699 160.466 280.801 160.369 280.883 160.239C280.966 160.11 281.024 159.961 281.064 159.789C281.103 159.617 281.122 159.425 281.122 159.226C281.122 158.728 281.028 158.36 280.84 158.126C280.652 157.891 280.417 157.773 280.138 157.773L280.134 157.777Z" fill="white"></path>
  </g>
  <defs>
    <linearGradient id="paint0_linear_328_700" x1="246" y1="0" x2="246" y2="220" gradientUnits="userSpaceOnUse">
      <stop stop-color="#F5D993"></stop>
      <stop offset="1" stop-color="#A67D3E"></stop>
    </linearGradient>
    <clipPath id="clip0_328_700">
      <rect width="132" height="114" fill="white" transform="translate(179.5 53)"></rect>
    </clipPath>
  </defs>
</svg>
