<?xml version="1.0" encoding="UTF-8"?>
<svg xmlns="http://www.w3.org/2000/svg" width="491" height="220" viewBox="0 0 491 220" fill="none">
  <rect x="2.5" y="2.5" width="486" height="215" fill="white" stroke="url(#paint0_linear_764_840)" stroke-width="5"></rect>
  <rect x="22" y="20" width="446" height="181" rx="9" stroke="black" stroke-width="2" stroke-dasharray="10 10"></rect>
  <g clip-path="url(#clip0_764_840)">
    <path d="M289.102 118.107C289.517 112.699 291.779 107.565 291.24 102.031C291.094 100.495 290.825 99.0218 289.413 97.9276C288.313 97.0649 288.832 96.1812 290.14 96.1391C292.693 96.0549 295.267 96.118 297.82 96.1391C298.339 96.1391 298.878 96.2653 299.045 96.8755C299.19 97.4647 298.837 97.8855 298.339 98.117C297.301 98.622 297.135 99.5058 297.301 100.516C298.297 106.386 299.314 112.257 300.954 118.149C301.515 115.077 302.075 111.984 302.636 108.911C303.134 106.176 303.59 103.462 304.068 100.726C304.213 99.8845 304.483 98.9797 303.674 98.3274C303.196 97.9276 302.656 97.5699 302.885 96.8545C303.175 96.0128 303.964 96.1391 304.628 96.118C308.552 96.118 312.495 96.118 316.419 96.118C317.083 96.118 317.892 96.0128 318.121 96.8755C318.328 97.612 317.706 97.9276 317.228 98.2643C316.689 98.622 316.294 99.127 316.419 99.7793C317.332 104.913 318.287 110.048 319.221 115.182C319.47 115.182 319.74 115.182 319.989 115.182C321.068 110.132 322.148 105.103 323.227 100.053C323.352 99.4426 323.186 98.8535 322.729 98.3695C321.151 96.7072 322.044 96.1812 323.767 96.097C324.535 96.0549 325.303 96.0549 326.071 96.097C326.735 96.118 327.524 95.9707 327.856 96.7914C328.188 97.633 327.482 98.0118 327.005 98.4747C325.988 99.4426 325.946 100.81 325.635 102.052C322.812 113.751 320.031 125.45 317.187 137.128C316.938 138.138 317.021 139.569 315.547 139.759C314.301 139.927 312.745 140.348 311.831 139.485C310.897 138.58 312.08 137.402 312.558 136.497C315.63 130.753 316.398 125.008 314.218 118.612C312.35 113.078 311.437 107.186 310.046 101.463C309.755 100.284 309.88 98.3905 308.219 98.4747C306.642 98.5589 306.829 100.432 306.58 101.631C305.106 108.743 303.632 115.876 302.324 123.03C301.93 125.156 301.058 125.871 298.941 125.85C296.782 125.85 295.661 125.261 295.308 122.946C294.789 119.39 293.959 115.876 293.253 112.341C293.004 112.341 292.776 112.341 292.527 112.341C291.759 115.918 290.845 119.495 290.306 123.115C289.973 125.366 288.956 125.892 286.901 125.871C284.909 125.85 283.808 125.429 283.393 123.157C282.148 116.087 280.674 109.059 279.263 102.01C278.972 100.495 278.93 98.8535 277.27 98.0328C276.855 97.8224 276.668 97.4226 276.772 96.9387C276.896 96.2864 277.436 96.1601 277.934 96.1601C280.487 96.1391 283.061 96.0549 285.614 96.1812C287.005 96.2443 287.213 97.1491 286.175 98.0328C285.428 98.6641 285.095 99.3164 285.261 100.263C286.299 106.218 287.317 112.173 288.334 118.107C288.562 118.107 288.77 118.107 288.998 118.128L289.102 118.107Z" fill="#162D39"></path>
    <path d="M188.074 98.9588C186.351 94.7504 181.473 94.2244 178.318 97.4648C177.965 97.8225 177.654 98.2223 177.322 98.6221C176.056 97.9698 177.758 95.2765 175.246 96.1182C173.316 96.7915 171.51 97.8225 169.704 98.7905C168.521 99.4217 168.479 100.453 169.808 100.726C171.655 101.126 171.51 102.389 171.51 103.672C171.51 114.488 171.51 125.282 171.531 136.097C171.531 137.234 171.489 138.349 170.347 139.043C169.891 139.317 169.579 139.78 169.849 140.348C170.098 140.916 170.679 140.916 171.178 140.916C173.316 140.937 175.454 140.979 177.571 140.916C179.024 140.895 179.564 140.201 178.422 139.022C177.779 138.37 177.322 137.739 177.322 136.792C177.322 133.593 177.322 130.395 177.28 127.197C177.28 125.787 177.779 125.471 179.169 125.745C183.57 126.608 186.559 125.366 188.157 121.389C191.167 113.962 191.084 106.302 188.074 98.9167V98.9588ZM183.176 119.327C182.843 121.032 182.532 123.346 180.062 123.009C177.758 122.694 177.405 120.569 177.322 118.612C177.239 116.634 177.322 114.635 177.322 112.089C177.446 109.627 176.969 106.576 177.799 103.588C178.131 102.41 178.464 101.231 179.315 100.348C180.456 99.1692 181.598 99.2323 182.491 100.642C182.885 101.273 183.134 102.052 183.259 102.809C184.213 108.322 184.234 113.856 183.176 119.327Z" fill="#162D39"></path>
    <path d="M137.301 79.9998C139.315 79.8315 141.245 81.0309 143.362 80.2944C144.255 79.9788 144.982 80.7573 144.857 81.8515C144.629 83.8294 144.38 85.8073 144.11 87.7853C144.006 88.6269 143.653 89.3213 142.657 89.195C141.702 89.0898 141.411 88.4165 141.39 87.5538C141.39 87.1119 141.39 86.67 141.287 86.2702C140.934 84.5238 140.228 83.0929 138.152 83.1771C136.16 83.2613 135.35 84.6079 135.039 86.3755C134.665 88.4586 135.412 90.3103 136.284 92.1199C138.858 97.4855 141.515 102.83 144.027 108.238C145.542 111.52 146.102 114.992 145.521 118.611C144.691 123.998 140.747 126.965 135.433 126.06C134.063 125.829 132.838 125.576 131.489 126.355C130.368 127.007 129.517 126.439 129.33 125.092C129.06 123.114 128.77 121.157 128.521 119.18C128.438 118.464 128.479 117.728 129.351 117.517C130.244 117.286 130.825 117.686 131.074 118.59C131.157 118.927 131.261 119.264 131.385 119.579C132.402 122.231 134.063 123.493 136.097 123.03C138.65 122.462 139.418 120.463 139.522 118.17C139.626 115.434 138.754 112.867 137.55 110.447C135.371 106.028 133.108 101.652 130.908 97.254C129.434 94.2451 128.438 91.1309 128.811 87.7221C129.351 82.5459 132.174 80.0208 137.301 79.9998Z" fill="#162D39"></path>
    <path d="M160.757 123.262C160.093 123.767 159.823 123.935 159.574 124.167C157.436 126.145 154.945 126.86 152.247 125.661C149.631 124.503 148.988 122.021 148.946 119.39C148.884 114.109 148.884 108.827 148.884 103.567C148.884 102.241 148.967 101.105 147.14 100.684C145.77 100.369 146.061 99.3165 147.223 98.7484C148.988 97.8857 150.814 97.1492 152.579 96.2865C154.198 95.5079 154.696 96.055 154.696 97.7384C154.655 104.135 154.696 110.553 154.696 116.949C154.696 117.981 154.717 119.033 154.862 120.043C154.987 120.989 155.34 121.957 156.419 122.21C157.581 122.483 158.391 121.831 159.034 120.968C159.948 119.748 160.342 118.338 160.363 116.844C160.404 112.257 160.404 107.67 160.404 103.083C160.404 101.968 160.155 101.189 158.868 100.768C157.332 100.263 157.581 99.3165 158.868 98.6852C160.55 97.8436 162.314 97.1913 163.996 96.3286C165.843 95.3817 166.403 95.9709 166.383 97.9277C166.32 103.819 166.383 109.69 166.383 115.582C166.383 117.307 166.383 119.033 166.403 120.779C166.403 121.368 166.445 122.042 166.694 122.547C168.002 125.093 168.022 125.156 165.054 125.513C163.352 125.724 160.944 127.197 160.778 123.262H160.757Z" fill="#162D39"></path>
    <path d="M243.29 80.505C244.66 80.505 246.03 80.505 247.4 80.505C248.002 80.505 248.666 80.5891 248.873 81.2835C249.039 81.8095 248.853 82.3987 248.292 82.567C246.341 83.1141 246.611 84.7133 246.611 86.1441C246.611 97.2331 246.569 108.301 246.632 119.39C246.632 120.695 245.864 122.673 248.022 123.009C250.16 123.325 252.361 123.22 253.689 121.01C254.084 120.358 254.27 119.579 254.54 118.843C254.789 118.191 255.204 117.854 255.91 117.98C256.678 118.128 256.824 118.717 256.761 119.348C256.554 121.326 256.325 123.304 256.076 125.282C255.952 126.25 255.287 126.628 254.395 126.376C249.849 125.092 245.22 126.081 240.633 125.724C239.74 125.661 238.598 126.081 238.059 125.071C237.394 123.788 238.764 123.577 239.387 122.988C240.093 122.315 239.968 121.389 239.968 120.547C239.968 108.953 239.968 97.3383 239.968 85.7444C239.968 84.545 240.114 83.2404 238.64 82.6723C237.976 82.4198 237.727 81.8727 237.934 81.2204C238.162 80.505 238.847 80.505 239.429 80.505C240.716 80.4839 241.982 80.505 243.269 80.505H243.29Z" fill="#162D39"></path>
    <path d="M276.543 123.325C275.173 122.588 275.277 121.41 275.256 120.211C275.256 117.433 275.256 114.656 275.256 111.899H275.09C275.09 108.532 275.381 105.124 275.028 101.778C274.509 96.8754 271.665 94.8974 266.829 95.5918C265.106 95.8443 263.528 96.4966 262.158 97.5697C261.432 98.1379 259.979 98.5166 260.871 99.9054C261.785 101.294 262.656 100.032 263.466 99.5897C265.23 98.6218 267.036 97.9485 268.51 99.9054C270.482 102.515 269.465 106.092 266.538 107.354C260.435 109.963 257.654 115.076 259.003 121.263C259.833 125.029 262.947 126.965 266.497 126.018C268.033 125.618 269.34 123.199 271.375 125.85C271.894 126.523 274.758 125.555 276.46 125.071C277.436 124.798 277.457 123.809 276.564 123.346L276.543 123.325ZM269.444 115.076C269.361 116.781 269.652 118.696 268.988 120.526C268.572 121.641 267.929 122.588 266.642 122.546C265.251 122.525 264.794 121.389 264.628 120.253C264.13 116.655 264.192 113.162 266.995 110.384C267.534 109.858 268.095 109.08 268.925 109.416C269.673 109.711 269.423 110.616 269.444 111.268C269.465 112.467 269.444 113.688 269.444 115.055V115.076Z" fill="#162D39"></path>
    <path d="M201.774 111.689C203.663 110.91 205.448 109.837 207.275 108.89C210.949 106.996 211.157 106.491 209.994 102.388C208.77 98.1378 206.113 95.6338 202.625 95.4655C198.951 95.2972 195.962 97.5066 194.343 101.631C193.118 104.745 192.869 108.006 192.724 111.436C192.89 115.434 193.285 119.474 195.9 122.883C199.533 127.617 206.818 127.07 209.455 121.873C209.828 121.157 210.513 120.316 209.455 119.6C208.396 118.864 207.96 119.748 207.503 120.526C207.234 120.968 206.943 121.389 206.59 121.768C204.12 124.461 200.944 123.746 199.948 120.232C199.574 118.906 199.491 117.517 199.263 116.15C198.91 113.982 199.657 112.53 201.754 111.668L201.774 111.689ZM199.263 108.238C199.242 107.291 199.263 106.344 199.263 106.028C199.346 103.293 199.491 101.231 200.342 99.2951C200.674 98.5797 201.131 97.8853 202.044 97.9695C202.812 98.0326 203.207 98.6638 203.456 99.3372C204.286 101.673 204.452 104.156 203.995 106.491C203.643 108.238 201.629 108.553 200.176 109.185C199.553 109.458 199.304 108.806 199.283 108.259L199.263 108.238Z" fill="#162D39"></path>
    <path d="M335.536 112.236C337.612 111.226 339.626 110.111 341.681 109.038C345.894 106.828 345.998 106.618 344.566 102.073C343.279 97.9696 340.871 95.7392 337.508 95.5077C333.897 95.2552 330.949 97.2963 329.268 101.273C327.939 104.429 327.482 107.754 327.607 111.163C327.607 112.11 327.524 113.078 327.607 114.003C327.981 117.665 328.707 121.221 331.509 123.893C335.391 127.617 341.722 126.628 344.213 121.936C344.608 121.2 345.251 120.379 344.213 119.664C343.175 118.948 342.698 119.769 342.241 120.547C341.992 120.989 341.701 121.431 341.349 121.81C338.899 124.44 335.64 123.725 334.665 120.253C334.208 118.612 334.125 116.844 333.917 115.14C333.751 113.793 334.27 112.825 335.536 112.215V112.236ZM333.938 105.692C334.042 103.546 334.146 101.357 335.017 99.3373C335.329 98.6009 335.765 97.8854 336.678 97.9275C337.571 97.9696 337.986 98.7061 338.235 99.4425C338.754 100.936 338.92 102.473 338.858 104.366C338.775 105.124 339.211 106.386 338.276 107.249C337.197 108.238 335.786 109.479 334.519 109.122C333.025 108.701 333.876 106.849 333.938 105.671V105.692Z" fill="#162D39"></path>
    <path d="M379.48 98.5797C379.356 99.6318 379.252 100.663 379.107 101.694C379.003 102.43 378.691 103.041 377.799 102.935C377.052 102.851 376.844 102.325 376.782 101.673C376.74 101.336 376.72 100.978 376.636 100.642C376.325 99.2741 375.64 98.243 374.187 97.9905C373.004 97.8012 371.966 98.1589 371.24 99.1268C370.326 100.347 370.638 101.673 371.406 102.767C372.693 104.598 374.146 106.281 375.536 108.027C376.823 109.648 378.297 111.142 379.335 112.888C381.141 115.96 381.639 119.264 379.605 122.462C377.654 125.513 374.665 126.186 371.281 125.703C370.7 125.618 369.973 125.408 369.537 125.66C366.756 127.196 366.361 125.324 366.009 123.262C365.822 122.252 365.573 121.242 365.365 120.211C365.22 119.537 365.407 119.011 366.112 118.78C366.797 118.548 367.233 118.822 367.565 119.453C367.981 120.211 368.354 121.031 368.935 121.62C370.326 123.03 371.987 123.556 373.813 122.504C375.536 121.515 375.557 119.853 375.183 118.17C374.851 116.612 373.938 115.35 372.921 114.151C371.094 111.983 369.247 109.837 367.441 107.649C365.344 105.103 364.68 102.178 366.112 99.1899C367.586 96.0757 370.451 95.2761 373.668 95.4445C375.183 95.5286 376.616 95.8443 378.193 95.6759C380.435 95.4445 379.127 97.5066 379.48 98.5166V98.5797Z" fill="#162D39"></path>
    <path d="M220.477 99.7791C222.366 97.2541 223.923 95.4445 226.642 95.4866C228.116 95.5076 228.905 95.9705 228.676 97.6328C228.469 99.0847 228.406 100.558 228.24 102.009C228.157 102.62 227.95 103.23 227.182 103.251C226.58 103.272 226.248 102.893 226.144 102.325C225.957 101.357 225.708 100.368 224.483 100.368C223.321 100.368 222.698 101.252 222.138 102.157C221.183 103.756 220.809 105.502 220.809 107.375C220.809 111.52 220.809 115.687 220.809 119.832C220.809 121.347 220.539 122.841 222.179 123.977C223.155 124.65 222.511 125.618 221.411 125.66C219.107 125.745 216.803 125.787 214.499 125.66C213.212 125.597 212.734 124.692 213.814 123.809C215.039 122.82 214.997 121.599 214.997 120.316C214.997 114.866 214.997 109.416 214.997 103.966C214.997 102.515 215.184 101.063 213.087 100.642C211.966 100.41 212.153 99.2951 213.15 98.7691C214.955 97.8011 216.824 96.9384 218.692 96.0757C219.584 95.6549 220.186 95.8864 220.228 97.0016C220.269 97.6749 220.332 98.3482 220.456 99.758L220.477 99.7791Z" fill="#162D39"></path>
    <path d="M355.152 99.5689C356.917 97.4226 358.349 95.4237 361.131 95.4868C362.708 95.5289 363.58 95.9708 363.269 97.7804C363.04 99.1481 363.04 100.537 362.895 101.926C362.833 102.515 362.729 103.188 361.961 103.272C361.214 103.356 361.027 102.788 360.736 102.199C359.594 99.8845 358.121 99.8424 356.751 102.073C355.734 103.735 355.401 105.608 355.401 107.544C355.401 111.605 355.401 115.687 355.401 119.748C355.401 121.284 355.194 122.799 356.792 123.935C357.768 124.63 357.29 125.619 356.149 125.661C353.762 125.766 351.354 125.787 348.987 125.64C347.846 125.576 347.451 124.588 348.406 123.872C349.693 122.904 349.61 121.684 349.61 120.4C349.61 114.761 349.61 109.143 349.61 103.504C349.61 102.304 349.735 101.168 348.033 100.726C346.393 100.305 346.829 99.3374 348.033 98.6431C348.925 98.1381 349.859 97.7172 350.793 97.2754C353.16 96.1531 354.627 96.9106 355.194 99.5479L355.152 99.5689Z" fill="#162D39"></path>
    <path d="M382.947 100.263C381.535 100.137 380.622 99.4215 380.767 97.9696C380.892 96.4966 381.847 95.6129 383.362 95.676C384.794 95.7181 385.562 96.6019 385.521 98.0327C385.479 99.6529 384.421 100.242 382.968 100.284L382.947 100.263Z" fill="#162D39"></path>
    <path d="M240.778 84.8608V121.347C240.778 121.347 240.633 121.347 240.55 121.347V84.924C240.55 84.924 240.695 84.8819 240.778 84.8819V84.8608Z" fill="#818181"></path>
  </g>
  <defs>
    <linearGradient id="paint0_linear_764_840" x1="245.5" y1="0" x2="245.5" y2="220" gradientUnits="userSpaceOnUse">
      <stop stop-color="#F5D993"></stop>
      <stop offset="1" stop-color="#A67D3E"></stop>
    </linearGradient>
    <clipPath id="clip0_764_840">
      <rect width="257" height="61" fill="white" transform="translate(128.5 80)"></rect>
    </clipPath>
  </defs>
</svg>
