<?xml version="1.0" encoding="UTF-8"?>
<svg xmlns="http://www.w3.org/2000/svg" width="80" height="80" viewBox="0 0 80 80" fill="none">
  <rect width="80" height="80" rx="40" fill="#162D39"></rect>
  <g clip-path="url(#clip0_763_837)">
    <path d="M55.3045 46.6133C55.3773 46.7551 55.4528 46.9057 55.5367 47.0563C56.4656 48.7415 56.2754 50.1604 54.8541 51.4142C54.2945 51.9093 54.0343 52.4363 53.9671 53.195C53.7573 55.5317 52.8955 56.4699 50.6432 56.6928C46.3904 57.1185 42.1348 57.104 37.882 56.6407C35.8843 56.4235 33.8867 56.2093 31.889 55.995C30.7166 55.8676 30.5404 55.6939 30.5292 54.443C30.4984 51.4605 30.49 48.478 30.4788 45.4955C30.4732 43.515 30.4956 41.5344 30.4704 39.5538C30.462 38.8299 30.7054 38.4592 31.3769 38.1465C31.9477 37.8801 32.5577 37.3531 32.8151 36.7798C34.3315 33.3717 36.7321 30.783 39.6335 28.6403C41.357 27.3662 42.3755 25.7128 42.4342 23.4774C42.4482 22.9301 42.5042 22.3742 42.6105 21.8356C42.8259 20.7179 43.4219 20.188 44.5522 20.0316C45.6182 19.884 46.3009 20.2372 46.7989 21.2652C47.8258 23.3818 47.8929 25.542 46.9808 27.7194C46.3177 29.3033 45.6098 30.867 44.9635 32.4595C44.4739 33.6612 44.8264 34.2346 46.0939 34.2461C47.5935 34.2606 49.0988 34.11 50.5957 34.1651C51.8211 34.2114 53.0634 34.3446 54.2525 34.6341C56.3202 35.138 57.4029 37.217 56.5244 39.2295C55.9704 40.4977 55.9173 41.488 56.6391 42.6665C57.2994 43.7495 57.0252 44.8325 56.1467 45.733C55.8725 46.0139 55.6067 46.3005 55.3129 46.6104L55.3045 46.6133Z" fill="url(#paint0_linear_763_837)"></path>
    <path d="M23 47.1723C23 44.6155 23 42.0587 23 39.5019C23 38.4073 23.1763 38.2191 24.2059 38.2162C25.6105 38.2133 27.015 38.2104 28.4196 38.2162C29.3121 38.2191 29.5639 38.4653 29.5639 39.3571C29.5695 44.5952 29.5695 49.8363 29.5639 55.0744C29.5639 55.8968 29.3177 56.1545 28.5203 56.1632C27.0178 56.1777 25.5181 56.1777 24.0157 56.1632C23.2043 56.1574 23.0028 55.9344 23 55.0657C22.9944 52.4336 23 49.8015 23 47.1694V47.1723Z" fill="url(#paint1_linear_763_837)"></path>
  </g>
  <defs>
    <linearGradient id="paint0_linear_763_837" x1="43.7377" y1="19.9995" x2="43.7377" y2="57.0006" gradientUnits="userSpaceOnUse">
      <stop stop-color="#F5D993"></stop>
      <stop offset="1" stop-color="#A67D3E"></stop>
    </linearGradient>
    <linearGradient id="paint1_linear_763_837" x1="26.2828" y1="38.2129" x2="26.2828" y2="56.174" gradientUnits="userSpaceOnUse">
      <stop stop-color="#F5D993"></stop>
      <stop offset="1" stop-color="#A67D3E"></stop>
    </linearGradient>
    <clipPath id="clip0_763_837">
      <rect width="34" height="37" fill="white" transform="translate(23 20)"></rect>
    </clipPath>
  </defs>
</svg>
