<?xml version="1.0" encoding="UTF-8"?>
<svg xmlns="http://www.w3.org/2000/svg" width="80" height="80" viewBox="0 0 80 80" fill="none">
  <rect width="80" height="80" rx="40" fill="#162D39"></rect>
  <g clip-path="url(#clip0_763_838)">
    <path d="M50.0108 32.3905C47.1123 34.4981 44.242 36.585 41.3176 38.7134C39.1248 35.8226 36.9462 32.9502 34.7394 30.0433C37.6403 27.9333 40.52 25.8395 43.4326 23.7227C45.6301 26.6181 47.8063 29.4881 50.0108 32.3928V32.3905Z" fill="url(#paint0_linear_763_838)"></path>
    <path d="M16 48.0952C16.0541 47.0218 16.5082 46.1788 17.4281 45.5983C20.8466 43.44 24.2675 41.284 27.6859 39.128C29.8975 37.7344 32.1067 36.3408 34.3159 34.9426C35.5017 34.194 36.8803 34.8205 37.0521 36.198C37.1203 36.7324 36.8968 37.1539 36.478 37.5017C33.7748 39.7499 31.0786 42.0026 28.38 44.2531C25.9426 46.2847 23.5028 48.3163 21.0607 50.3457C20.0396 51.1956 18.708 51.3454 17.5905 50.7257C16.5529 50.1476 16.0424 49.2492 15.9977 48.0952H16Z" fill="url(#paint1_linear_763_838)"></path>
    <path d="M51.0977 50.053C48.3898 50.0047 45.5571 49.8135 42.8515 48.8276C42.2633 48.6134 41.6916 48.307 41.1787 47.95C40.6423 47.5791 40.6282 47.153 41.1881 46.8467C42.0774 46.3583 43.0091 45.8999 43.9831 45.6189C46.6088 44.8634 49.3191 44.7206 52.0412 44.7736C54.535 44.8219 57.0007 45.0707 59.3746 45.8723C60.0004 46.0842 60.6121 46.3814 61.1697 46.7315C61.9014 47.1922 61.9249 47.6667 61.1579 48.0675C60.2027 48.5673 59.1817 48.9865 58.1418 49.2768C55.8949 49.9033 53.5728 50.0231 51.1001 50.0507L51.0977 50.053Z" fill="url(#paint2_linear_763_838)"></path>
    <path d="M39.4189 52.953C47.3475 56.1294 55.2267 56.0995 63.1577 52.9622C63.1577 53.8997 63.1813 54.7589 63.1483 55.6134C63.1342 56.005 62.8378 56.2077 62.4543 56.3206C60.2451 56.9794 58.0006 57.4631 55.7091 57.7349C50.526 58.3476 45.4371 57.8869 40.44 56.4196C39.4848 56.1386 39.4212 56.058 39.4212 55.0767C39.4212 54.3926 39.4212 53.7085 39.4212 52.9507L39.4189 52.953Z" fill="url(#paint3_linear_763_838)"></path>
    <path d="M62.4143 49.1665C62.666 49.7378 62.9037 50.2445 63.1154 50.7605C63.2777 51.1544 63.0025 51.2995 62.6896 51.4262C60.5533 52.2877 58.3535 52.9326 56.0761 53.315C50.6013 54.2387 45.3101 53.5684 40.1812 51.5344C39.3083 51.1889 39.2895 51.1428 39.6471 50.3113C39.7977 49.9589 39.9412 49.6042 40.0777 49.2771C44.2608 51.6404 48.8345 51.7648 53.4411 51.5552C55.1115 51.4791 56.7772 51.1659 58.4265 50.8595C59.8428 50.5969 61.1909 50.0925 62.4166 49.1665H62.4143Z" fill="url(#paint4_linear_763_838)"></path>
    <path d="M50.966 33.6802C51.3919 34.2146 51.853 34.6914 51.9142 35.3939C51.9824 36.1863 51.7471 36.8566 51.0907 37.338C49.3544 38.6141 47.6181 39.8925 45.8583 41.1387C44.8513 41.8527 43.562 41.6339 42.8045 40.678C42.6351 40.4661 42.4798 40.2426 42.2869 39.9847C45.1854 37.8793 48.0651 35.7855 50.9637 33.6802H50.966Z" fill="url(#paint5_linear_763_838)"></path>
    <path d="M33.7488 28.7787C33.5136 28.4194 33.2571 28.1199 33.1019 27.7767C32.6807 26.8507 32.9489 25.8372 33.8006 25.2061C35.5322 23.9231 37.2709 22.6516 39.0283 21.4054C40.1976 20.5762 41.6822 21.053 42.4162 22.4719C39.553 24.5542 36.6874 26.6388 33.7488 28.7764V28.7787Z" fill="url(#paint6_linear_763_838)"></path>
    <path d="M55.455 40.966C56.0925 40.2473 56.7278 39.5287 57.3654 38.8123C58.297 37.7619 59.2287 36.7116 60.1627 35.6612C60.238 35.576 60.3157 35.4931 60.3956 35.417C60.7768 35.0531 61.2285 35.0393 61.5626 35.3825C61.8873 35.7142 61.8543 36.1956 61.4497 36.5181C60.805 37.0341 60.1392 37.527 59.4828 38.0291C58.2594 38.9643 57.036 39.8972 55.8126 40.8301C55.7161 40.9038 55.6126 40.9637 55.5114 41.0305C55.4926 41.0098 55.4738 40.989 55.455 40.9683V40.966Z" fill="url(#paint7_linear_763_838)"></path>
    <path d="M54.7891 38.4946C54.9138 36.7233 55.0432 34.9542 55.1632 33.1829C55.1891 32.8028 55.302 32.4412 55.6996 32.3629C55.949 32.3122 56.2854 32.3974 56.5019 32.5402C56.8289 32.7568 56.7748 33.1253 56.6572 33.4593C56.0596 35.1477 55.4596 36.8338 54.8621 38.5222C54.8385 38.513 54.815 38.5038 54.7915 38.4946H54.7891Z" fill="url(#paint8_linear_763_838)"></path>
    <path d="M57.5959 42.2954C59.0146 42.0143 60.4333 41.7333 61.8544 41.4523C62.2543 41.374 62.6543 41.2473 63.0566 41.2404C63.3319 41.2358 63.6965 41.3302 63.8612 41.5145C64.0094 41.6827 64.0565 42.1134 63.9365 42.2862C63.7859 42.505 63.4142 42.7054 63.1483 42.6939C61.3062 42.6155 59.4664 42.4796 57.6242 42.3622C57.6171 42.3391 57.6077 42.3161 57.6007 42.2908L57.5959 42.2954Z" fill="url(#paint9_linear_763_838)"></path>
  </g>
  <defs>
    <linearGradient id="paint0_linear_763_838" x1="42.3751" y1="23.7227" x2="42.3751" y2="38.7134" gradientUnits="userSpaceOnUse">
      <stop stop-color="#F5D993"></stop>
      <stop offset="1" stop-color="#A67D3E"></stop>
    </linearGradient>
    <linearGradient id="paint1_linear_763_838" x1="26.5309" y1="34.623" x2="26.5309" y2="51.1046" gradientUnits="userSpaceOnUse">
      <stop stop-color="#F5D993"></stop>
      <stop offset="1" stop-color="#A67D3E"></stop>
    </linearGradient>
    <linearGradient id="paint2_linear_763_838" x1="51.2491" y1="44.7637" x2="51.2491" y2="50.053" gradientUnits="userSpaceOnUse">
      <stop stop-color="#F5D993"></stop>
      <stop offset="1" stop-color="#A67D3E"></stop>
    </linearGradient>
    <linearGradient id="paint3_linear_763_838" x1="51.2924" y1="52.9507" x2="51.2924" y2="57.9988" gradientUnits="userSpaceOnUse">
      <stop stop-color="#F5D993"></stop>
      <stop offset="1" stop-color="#A67D3E"></stop>
    </linearGradient>
    <linearGradient id="paint4_linear_763_838" x1="51.2961" y1="49.1665" x2="51.2961" y2="53.7222" gradientUnits="userSpaceOnUse">
      <stop stop-color="#F5D993"></stop>
      <stop offset="1" stop-color="#A67D3E"></stop>
    </linearGradient>
    <linearGradient id="paint5_linear_763_838" x1="47.1062" y1="33.6802" x2="47.1062" y2="41.5603" gradientUnits="userSpaceOnUse">
      <stop stop-color="#F5D993"></stop>
      <stop offset="1" stop-color="#A67D3E"></stop>
    </linearGradient>
    <linearGradient id="paint6_linear_763_838" x1="37.661" y1="20.998" x2="37.661" y2="28.7787" gradientUnits="userSpaceOnUse">
      <stop stop-color="#F5D993"></stop>
      <stop offset="1" stop-color="#A67D3E"></stop>
    </linearGradient>
    <linearGradient id="paint7_linear_763_838" x1="58.6187" y1="35.1343" x2="58.6187" y2="41.0305" gradientUnits="userSpaceOnUse">
      <stop stop-color="#F5D993"></stop>
      <stop offset="1" stop-color="#A67D3E"></stop>
    </linearGradient>
    <linearGradient id="paint8_linear_763_838" x1="55.7688" y1="32.3481" x2="55.7688" y2="38.5222" gradientUnits="userSpaceOnUse">
      <stop stop-color="#F5D993"></stop>
      <stop offset="1" stop-color="#A67D3E"></stop>
    </linearGradient>
    <linearGradient id="paint9_linear_763_838" x1="60.8003" y1="41.2402" x2="60.8003" y2="42.6943" gradientUnits="userSpaceOnUse">
      <stop stop-color="#F5D993"></stop>
      <stop offset="1" stop-color="#A67D3E"></stop>
    </linearGradient>
    <clipPath id="clip0_763_838">
      <rect width="48" height="37" fill="white" transform="translate(16 21)"></rect>
    </clipPath>
  </defs>
</svg>
