<?xml version="1.0" encoding="UTF-8"?>
<svg xmlns="http://www.w3.org/2000/svg" width="80" height="80" viewBox="0 0 80 80" fill="none">
  <rect width="80" height="80" rx="40" fill="#162D39"></rect>
  <g clip-path="url(#clip0_763_836)">
    <path d="M17.7429 50.439C17.8472 50.25 17.9208 50.0305 18.0619 49.8719C18.8289 49.0183 19.6081 48.1829 20.3812 47.3353C20.4364 47.2744 20.4794 47.2012 20.5775 47.0732H13.8345C13.8345 46.8902 13.8345 46.75 13.8345 46.6158C13.8345 45.5549 13.8467 44.5 13.8222 43.439C13.816 43.0732 13.9326 42.8293 14.1903 42.5732C16.1476 40.628 18.1049 38.6829 20.0253 36.6951C21.0439 35.6402 21.9888 34.5061 22.5962 33.1524C22.9889 32.2866 23.1484 31.3841 22.9582 30.439C22.7373 29.3353 21.909 28.6036 20.7862 28.5C19.4179 28.3719 18.2705 28.8414 17.3072 29.7927C17.0066 30.0853 16.7305 30.4085 16.4053 30.7561C15.2825 29.8597 14.1535 28.9573 13 28.0305C13.7792 26.9573 14.7119 26.0975 15.8163 25.4268C17.9453 24.1219 20.2708 23.7866 22.7128 24.1219C24.2712 24.3353 25.7131 24.8293 26.9341 25.8536C28.2594 26.9695 28.9711 28.3902 29.0877 30.1097C29.2472 32.3963 28.4067 34.3293 27.0323 36.0914C25.3511 38.2439 23.3447 40.0732 21.32 41.8963C21.1052 42.0914 20.8905 42.2805 20.5837 42.5671H25.5658C24.7498 43.2744 24.0442 43.8841 23.3325 44.5C23.3447 44.5183 23.3631 44.5427 23.3754 44.561C23.4613 44.5061 23.5472 44.4573 23.6208 44.3963C28.7441 40.2805 34.5975 37.7805 41.0707 36.6768C45.7399 35.8841 50.4153 35.9085 55.0968 36.5671C55.8024 36.6646 56.508 36.7805 57.2136 36.8902C57.5143 36.939 57.8088 37 58.1769 37.0732C58.0358 37.1707 57.956 37.2378 57.8579 37.2927C55.6245 38.5427 53.3972 39.8049 51.1516 41.0366C50.9184 41.1646 50.5932 41.2195 50.3294 41.1768C47.7217 40.811 45.1079 40.6768 42.4757 40.7683C36.6407 40.9695 31.1064 42.3475 25.8972 44.9939C23.038 46.4451 20.4119 48.2378 18.0435 50.3963C17.9944 50.4451 17.9269 50.4756 17.8656 50.5122C17.8226 50.4878 17.7858 50.4634 17.7429 50.4329V50.439Z" fill="url(#paint0_linear_763_836)"></path>
    <path d="M29.8976 37.6342C30.8241 36.8049 31.7199 36.0001 32.6402 35.1769C32.8366 35.3781 33.0145 35.5854 33.2047 35.7745C33.7201 36.2867 34.3459 36.5732 35.0577 36.6647C36.4934 36.8476 37.4138 35.9879 37.3463 34.5367C37.3463 34.5245 37.3463 34.5062 37.3463 34.494C37.2358 32.7867 36.1007 32.1647 34.5607 32.9574C34.2907 33.0976 33.9594 33.1708 33.6587 33.1769C32.7691 33.2074 31.8794 33.1891 30.9591 33.1891V24.3232H41.5983C41.4265 25.4574 41.2547 26.5793 41.0768 27.744H35.8308V29.7745C35.9473 29.744 36.0517 29.7196 36.156 29.6891C39.279 28.5854 42.1566 30.4086 42.4512 33.6891C42.488 34.1281 42.6168 34.7013 42.4021 34.9879C42.2119 35.2501 41.6044 35.2196 41.1811 35.311C37.8187 36.0428 34.5975 37.1647 31.5481 38.7501C31.2536 38.9025 31.045 38.8903 30.8302 38.6464C30.6645 38.4635 30.4743 38.2989 30.3087 38.122C30.1798 37.9879 30.0632 37.8354 29.8976 37.6403V37.6342Z" fill="url(#paint1_linear_763_836)"></path>
    <path d="M57.6737 51.0734C58.3977 52.2868 59.1156 53.488 59.8642 54.7502C59.0052 54.7502 58.2198 54.7624 57.4406 54.738C57.324 54.738 57.1767 54.5856 57.1154 54.4697C56.6429 53.6222 56.1705 52.7746 55.7471 51.9027C55.5447 51.4941 55.2931 51.3905 54.8452 51.5429V54.7258H52.5198V45.9149C53.1088 45.9149 53.6855 45.8966 54.2623 45.9149C55.2195 45.9515 56.1889 45.9332 57.1338 46.0856C58.3793 46.2807 59.0849 46.9941 59.2506 48.0307C59.4408 49.2258 59.1279 50.2137 58.0173 50.8539C57.9069 50.921 57.8026 50.9941 57.6737 51.0795V51.0734ZM54.8513 49.9088C55.5508 49.86 56.2932 50.1039 56.7166 49.3844C56.9865 48.9271 57.0172 48.3844 56.6736 47.9515C56.195 47.36 55.5017 47.5734 54.8575 47.5368V49.9027L54.8513 49.9088Z" fill="url(#paint2_linear_763_836)"></path>
    <path d="M43.8501 54.7319C44.3533 53.0429 44.838 51.4087 45.3288 49.7746C45.6786 48.5978 46.0406 47.4209 46.378 46.238C46.4517 45.9819 46.5682 45.8965 46.8321 45.9026C47.5622 45.9209 48.2924 45.8965 49.0164 45.9209C49.1391 45.9209 49.3354 46.0612 49.3722 46.177C50.2251 48.9758 51.0595 51.7746 51.894 54.5795C51.9063 54.6161 51.894 54.6648 51.894 54.7319H49.452C49.3416 54.238 49.2372 53.7319 49.1023 53.2319C49.0716 53.1161 48.9182 52.9575 48.8139 52.9575C48.1144 52.9331 47.415 52.9453 46.6909 52.9453C46.5498 53.5551 46.4148 54.1405 46.2737 54.738H43.844L43.8501 54.7319ZM47.9242 47.7563C47.8935 47.7563 47.8567 47.7502 47.826 47.7441C47.5745 48.9087 47.3229 50.0673 47.0652 51.2502H48.6912C48.4335 50.0612 48.1758 48.9087 47.9242 47.7563Z" fill="url(#paint3_linear_763_836)"></path>
    <path d="M66.73 46.8657C66.3986 47.2559 66.0612 47.6523 65.693 48.0791C65.0856 47.5364 64.3677 47.2925 63.5701 47.3779C63.3369 47.4023 63.0731 47.4876 62.8952 47.634C62.4902 47.9754 62.6559 48.5974 63.2326 48.8535C63.7112 49.0669 64.2143 49.2071 64.7113 49.3779C65.736 49.7376 66.6379 50.2193 66.9079 51.3962C67.2331 52.8108 66.6686 54.0669 65.3126 54.5913C63.4965 55.2925 61.7417 55.1096 60.1464 53.9206C60.0666 53.8596 59.9869 53.7986 59.8826 53.7132C60.2998 53.2681 60.6802 52.8535 60.9686 52.5364C61.6374 52.7986 62.2264 53.073 62.8461 53.2437C63.1467 53.3291 63.5149 53.2681 63.8339 53.201C64.2143 53.1218 64.4782 52.8718 64.5273 52.4571C64.5825 52.0242 64.4352 51.6706 64.018 51.4937C63.4413 51.2498 62.8461 51.0547 62.2693 50.8169C61.9626 50.6889 61.6496 50.5486 61.3735 50.3718C59.858 49.3901 59.8703 47.2315 61.3919 46.2559C62.9013 45.2803 65.4476 45.5608 66.7177 46.8596L66.73 46.8657Z" fill="url(#paint4_linear_763_836)"></path>
    <path d="M43.4635 45.9331C43.3899 46.4758 43.3163 46.988 43.2426 47.5368H40.2362V49.4636H42.8193V51.0612H40.2178V53.0916H43.4022V54.7136H37.8678V45.9331H43.4635Z" fill="url(#paint5_linear_763_836)"></path>
    <path d="M34.4134 54.7254H32.0635C32.0635 53.7986 32.0819 52.8901 32.0512 51.9815C32.0389 51.6522 31.9592 51.2925 31.8119 50.9937C31.0388 49.4388 30.235 47.8961 29.4435 46.3474C29.3822 46.2193 29.327 46.0913 29.2472 45.9083C30.0755 45.9083 30.8547 45.8961 31.634 45.9205C31.7321 45.9205 31.8671 46.1035 31.9162 46.2315C32.358 47.3291 32.7813 48.4388 33.2476 49.634C33.3335 49.4571 33.3949 49.3535 33.4379 49.2437C33.8428 48.2376 34.2478 47.2315 34.6343 46.2132C34.7263 45.9693 34.8491 45.884 35.1068 45.8961C35.7878 45.9144 36.475 45.8961 37.2174 45.8961C37.1561 46.0425 37.1131 46.1583 37.0579 46.2681C36.2419 47.8657 35.4135 49.4632 34.6098 51.0669C34.4871 51.3169 34.4196 51.6157 34.4134 51.8901C34.3889 52.8169 34.4073 53.7437 34.4073 54.7132L34.4134 54.7254Z" fill="url(#paint6_linear_763_836)"></path>
  </g>
  <defs>
    <linearGradient id="paint0_linear_763_836" x1="35.5885" y1="24.0005" x2="35.5885" y2="50.5122" gradientUnits="userSpaceOnUse">
      <stop stop-color="#F5D993"></stop>
      <stop offset="1" stop-color="#A67D3E"></stop>
    </linearGradient>
    <linearGradient id="paint1_linear_763_836" x1="36.2104" y1="24.3232" x2="36.2104" y2="38.8501" gradientUnits="userSpaceOnUse">
      <stop stop-color="#F5D993"></stop>
      <stop offset="1" stop-color="#A67D3E"></stop>
    </linearGradient>
    <linearGradient id="paint2_linear_763_836" x1="56.192" y1="45.9067" x2="56.192" y2="54.7533" gradientUnits="userSpaceOnUse">
      <stop stop-color="#F5D993"></stop>
      <stop offset="1" stop-color="#A67D3E"></stop>
    </linearGradient>
    <linearGradient id="paint3_linear_763_836" x1="47.8717" y1="45.9023" x2="47.8717" y2="54.738" gradientUnits="userSpaceOnUse">
      <stop stop-color="#F5D993"></stop>
      <stop offset="1" stop-color="#A67D3E"></stop>
    </linearGradient>
    <linearGradient id="paint4_linear_763_836" x1="63.4401" y1="45.6729" x2="63.4401" y2="55.0011" gradientUnits="userSpaceOnUse">
      <stop stop-color="#F5D993"></stop>
      <stop offset="1" stop-color="#A67D3E"></stop>
    </linearGradient>
    <linearGradient id="paint5_linear_763_836" x1="40.6657" y1="45.9331" x2="40.6657" y2="54.7136" gradientUnits="userSpaceOnUse">
      <stop stop-color="#F5D993"></stop>
      <stop offset="1" stop-color="#A67D3E"></stop>
    </linearGradient>
    <linearGradient id="paint6_linear_763_836" x1="33.2323" y1="45.895" x2="33.2323" y2="54.7254" gradientUnits="userSpaceOnUse">
      <stop stop-color="#F5D993"></stop>
      <stop offset="1" stop-color="#A67D3E"></stop>
    </linearGradient>
    <clipPath id="clip0_763_836">
      <rect width="54" height="31" fill="white" transform="translate(13 24)"></rect>
    </clipPath>
  </defs>
</svg>
