<?xml version="1.0" encoding="UTF-8"?>
<svg xmlns="http://www.w3.org/2000/svg" width="50" height="58" viewBox="0 0 50 58" fill="none">
  <path d="M0.00286195 24.0122C0.00286195 18.7824 0.00286195 13.5517 0.00286195 8.32199C0.00286195 6.50656 0.802301 5.07558 2.15696 3.93748C2.70645 3.47575 3.37615 3.25252 4.07638 3.04741C4.7413 2.8528 5.38429 2.86711 6.03967 2.86616C10.9517 2.85757 15.8638 2.85566 20.7759 2.87188C21.2128 2.87379 21.3836 2.66105 21.5076 2.32048C21.873 1.31689 22.6447 0.699657 23.572 0.292306C24.0156 0.0976933 24.5374 0.0175586 25.0278 0.00229485C26.5646 -0.0454044 27.7152 0.651958 28.506 1.95605C28.6233 2.14971 28.6834 2.37772 28.7979 2.57328C28.8609 2.68108 28.9687 2.79747 29.0813 2.83467C29.2253 2.88237 29.3951 2.86043 29.5535 2.86043C34.5772 2.86043 39.5999 2.87188 44.6236 2.85471C46.0984 2.84994 47.3777 3.29736 48.4395 4.31526C49.0577 4.90864 49.4879 5.61268 49.797 6.43596C50.4057 8.05774 50.2387 9.72626 50.2435 11.3843C50.2616 17.175 50.253 22.9656 50.254 28.7563C50.2549 32.4215 50.3198 36.0877 50.2311 39.7501C50.1824 41.7515 49.3563 43.4496 47.5723 44.5686C45.8246 45.6648 44.0884 46.78 42.354 47.8971C41.318 48.5639 40.3068 49.2699 39.2641 49.9252C37.9638 50.7428 36.6397 51.5213 35.3327 52.3283C34.3768 52.9188 33.4267 53.5208 32.4851 54.1352C31.4739 54.7953 30.4884 55.4956 29.4676 56.1404C28.6501 56.6566 27.823 57.1736 26.9501 57.5857C25.9837 58.0417 24.982 58.1324 23.8983 57.8023C22.4034 57.3482 21.2519 56.3446 19.9459 55.5919C19.0224 55.0596 18.1419 54.4548 17.2423 53.8814C16.1462 53.1831 15.052 52.4819 13.9539 51.7884C12.9866 51.1769 12.0068 50.5854 11.0452 49.9653C10.0168 49.3013 9.01038 48.604 7.98199 47.941C7.1482 47.4039 6.29439 46.8992 5.45107 46.3783C4.45701 45.763 3.4229 45.203 2.48608 44.5114C1.63227 43.8818 0.913917 43.1119 0.49321 42.0711C0.151684 41.2325 0 40.3997 0 39.5116C0.00572391 34.3448 0.00286195 29.1789 0.00286195 24.0122ZM44.8401 31.8253C44.7657 33.4366 44.9594 34.9601 44.3841 36.4655C44.056 37.3231 43.6324 38.0873 43.0924 38.7942C42.3493 39.7663 41.3714 40.4426 40.2524 40.953C39.3538 41.3623 38.4265 41.6513 37.4563 41.6647C34.6115 41.7048 31.7648 41.6885 28.9191 41.6752C28.6005 41.6733 28.4268 41.7954 28.2952 42.0492C28.1063 42.4136 27.9193 42.7789 27.7256 43.1405C27.1227 44.2672 26.288 45.2231 25.314 46.0168C24.6853 46.53 23.9355 46.9021 23.1246 47.1701C22.286 47.4477 21.4723 47.6424 20.5937 47.5908C20.1825 47.566 19.9993 47.3724 20.0051 46.9631C20.0146 46.3116 20.0117 45.659 20.0031 45.0075C20.0012 44.8539 19.9574 44.7003 19.9116 44.4093C19.0749 45.4988 18.3375 46.4642 17.5934 47.4258C16.9504 48.2577 16.296 49.0819 15.6568 49.9167C15.4927 50.1303 15.3878 50.344 15.7531 50.5158C16.0203 50.6417 16.2464 50.8544 16.4973 51.0185C17.4026 51.609 18.3098 52.1948 19.218 52.7815C20.026 53.3033 20.8312 53.8289 21.644 54.3431C22.2107 54.7018 22.8002 55.0281 23.3583 55.4002C24.1673 55.9401 25.0554 56.1118 25.9541 55.8094C26.5456 55.61 27.0684 55.2008 27.615 54.8726C28.4879 54.3489 29.3598 53.8242 30.2213 53.2823C31.1857 52.6765 32.1397 52.0536 33.0956 51.4344C34.1288 50.7667 35.1581 50.0922 36.1913 49.4263C37.3857 48.6555 38.5848 47.8914 39.7802 47.1215C40.7008 46.5281 41.6138 45.9233 42.5382 45.3375C43.412 44.7842 44.3011 44.2538 45.1759 43.7024C45.754 43.338 46.3655 43.006 46.8807 42.5653C47.8204 41.762 48.2163 40.6954 48.2153 39.4553C48.2077 29.2963 48.2058 19.1383 48.221 8.97929C48.222 8.12738 48.0493 7.3413 47.6744 6.59528C47.1888 5.62889 46.3951 4.96587 45.319 4.95729C40.0091 4.91341 34.6993 4.93153 29.3894 4.94298C29.252 4.94298 29.0669 5.08417 28.9849 5.21105C28.6644 5.70903 28.4383 6.27951 28.0624 6.72884C27.2496 7.70095 26.1602 8.06537 24.8942 8.04724C24.152 8.03675 23.4671 7.82687 22.9061 7.4386C22.0533 6.84904 21.4389 6.0143 21.1966 4.9611C21.1155 4.95061 21.0535 4.93535 20.9915 4.93535C15.6177 4.9363 10.2448 4.93344 4.87104 4.95347C4.51235 4.95443 4.10499 5.06223 3.80449 5.25302C2.71409 5.94657 2.06061 6.93204 2.06061 8.26762C2.05774 16.6932 2.0587 25.1197 2.06251 33.5453C2.06251 33.7237 2.11308 33.9012 2.13597 34.0548C2.58339 33.9746 2.97071 33.9203 3.34944 33.8334C3.93709 33.698 4.51902 33.5339 5.10572 33.3946C5.7573 33.2401 6.41268 33.097 7.06712 32.952C7.56891 32.8413 8.06975 32.724 8.57441 32.6286C9.2193 32.5064 9.87374 32.4311 10.512 32.2861C11.4182 32.0791 12.3093 31.8005 13.2175 31.6002C14.18 31.3884 15.155 31.2357 16.1233 31.0507C16.5812 30.9629 17.0382 30.8685 17.4923 30.7626C18.1267 30.6156 18.7515 30.3991 19.3935 30.3209C19.86 30.2636 20.0299 30.1158 20.0146 29.6502C19.9936 29.0158 20.0232 29.0082 20.648 29.0082C24.0185 29.0082 27.3889 29.0015 30.7593 29.013C31.512 29.0158 32.2571 28.9633 33.0107 29.2238C34.0792 29.592 34.8395 30.2178 35.2745 31.2586C35.4224 31.6116 35.6227 31.8482 36.1045 31.8425C38.8071 31.8119 41.5098 31.8282 44.2124 31.8282H44.8392L44.8401 31.8253ZM16.4066 32.8413C15.6625 32.9739 15.071 33.0559 14.491 33.1876C13.5389 33.4051 12.5993 33.6808 11.6443 33.884C10.6217 34.1015 9.58754 34.2646 8.55819 34.4516C8.51145 34.4602 8.4647 34.4707 8.41891 34.4831C7.83221 34.6319 7.25028 34.7989 6.65881 34.9248C6.07497 35.0498 5.47873 35.1165 4.89489 35.2396C4.13552 35.3999 3.37997 35.583 2.62727 35.7719C2.34585 35.8425 2.04916 35.9007 2.05488 36.3214C2.07396 37.6236 2.06442 38.9268 2.07301 40.2289C2.07778 40.8901 2.37924 41.4491 2.74652 41.9662C3.33513 42.7942 4.27767 43.1787 5.07997 43.732C5.93283 44.3206 6.85819 44.8043 7.73491 45.3604C8.78429 46.0263 9.81841 46.717 10.8544 47.4029C11.5776 47.8818 12.3035 48.3578 13.0095 48.8606C13.6792 49.3366 13.8051 49.3261 14.325 48.6412C15.0834 47.6424 15.8524 46.6521 16.6012 45.6466C16.7195 45.4883 16.8273 45.2679 16.8226 45.08C16.8016 44.3244 16.7186 43.5708 16.6871 42.8152C16.5869 40.3625 16.4915 37.9089 16.4104 35.4552C16.3828 34.6186 16.4057 33.78 16.4057 32.8403L16.4066 32.8413ZM42.9989 33.6474C42.77 33.6474 42.583 33.6474 42.396 33.6474C39.8231 33.6474 37.2502 33.6474 34.6773 33.6474C33.8073 33.6474 33.7987 33.6474 33.772 32.7841C33.7491 32.0333 33.524 31.4141 32.7875 31.0783C32.1464 30.7855 31.4672 30.8274 30.7889 30.8198C30.4531 30.816 30.3462 30.9667 30.3291 31.2729C30.2575 32.5665 30.1946 33.8601 30.0906 35.1509C30.0248 35.9675 29.8921 36.7774 29.7882 37.5912C29.7824 37.6379 29.7643 37.6828 29.7519 37.7276C29.5649 38.4126 29.377 39.0985 29.1862 39.7958C29.336 39.833 29.397 39.8645 29.4562 39.8617C32.487 39.7176 35.5321 40.1593 38.5572 39.6251C39.3805 39.4801 40.0626 39.1013 40.6884 38.6158C41.5508 37.947 42.1776 37.1008 42.5887 36.0581C42.8921 35.2902 43.0552 34.5413 42.9999 33.6474H42.9989ZM28.5728 30.8255C26.3595 30.8255 24.3113 30.8255 22.2622 30.8255C21.9369 30.8255 21.8205 31.0335 21.8157 31.3206C21.8081 31.7652 21.8129 32.2107 21.8129 32.6562C21.8129 36.7889 21.8176 40.9225 21.8052 45.0552C21.8043 45.4644 21.913 45.7029 22.3347 45.5646C22.7182 45.4387 23.0788 45.2364 23.4356 45.0418C24.6996 44.353 25.5525 43.2731 26.2145 42.0329C26.515 41.4701 26.786 40.8862 27.0044 40.2881C27.3593 39.315 27.7295 38.3382 27.9632 37.3327C28.1759 36.4159 28.215 35.46 28.3314 34.5203C28.3429 34.4268 28.3639 34.3333 28.3696 34.2389C28.4373 33.1237 28.5031 32.0075 28.5728 30.8265V30.8255ZM18.3957 42.8848C18.4758 42.9173 18.5559 42.9497 18.6361 42.9821C18.7849 42.8123 18.9185 42.6254 19.0864 42.4765C19.7971 41.845 20.0594 41.0952 20.0308 40.1192C19.9602 37.6732 20.0079 35.2234 20.007 32.7745C20.007 32.0495 20.0041 32.0476 19.2943 32.1353C18.1696 32.2737 18.1343 32.2908 18.1705 33.4299C18.2297 35.2501 18.3394 37.0694 18.388 38.8896C18.4233 40.2204 18.3947 41.554 18.3947 42.8858L18.3957 42.8848ZM26.9987 3.98804C27.0674 2.83658 26.1268 2.02093 25.0535 2.0381C23.8715 2.05718 23.1217 3.05314 23.0921 3.98327C23.0568 5.10134 23.9727 5.92558 25.0974 5.96183C26.1363 5.99522 27.0979 5.17194 26.9987 3.98804Z" fill="#EBC24F"/>
  <path d="M41.5841 17.1272C42.4398 19.4588 43.2727 21.7274 44.1475 24.1104C43.4654 24.0045 42.8586 24.3775 42.3845 23.8547C42.2109 23.6639 42.1317 23.3768 42.0411 23.1221C41.6681 22.0813 41.3122 21.0348 40.9383 19.9949C40.7503 19.4721 40.5347 18.9589 40.3134 18.3941C40.1875 18.6011 40.0368 18.7881 39.948 19.0018C39.6017 19.8356 39.2688 20.6742 38.9435 21.5156C38.6602 22.2492 38.4054 22.9952 38.1097 23.7231C38.0477 23.8748 37.8674 24.0675 37.7253 24.0818C37.2721 24.1276 36.8104 24.099 36.2285 24.099C36.3544 23.7956 36.4441 23.5829 36.5299 23.3692C36.9554 22.3055 37.3904 21.2465 37.8016 20.1771C38.0973 19.4092 38.3606 18.6279 38.6392 17.8532C38.6602 17.795 38.6888 17.7378 38.7222 17.6844C38.9979 17.2474 38.9502 17.0729 38.5266 16.8191C37.7606 16.3593 37.275 15.6839 37.0145 14.7957H28.2999V15.3681C28.2999 18.3884 28.2999 21.4097 28.2999 24.43C28.2999 25.0806 28.297 25.0816 27.6388 25.0816C25.954 25.0816 24.2684 25.0816 22.5836 25.0816C21.9464 25.0816 21.8481 24.9871 21.8471 24.3365C21.8443 21.3477 21.8366 18.3588 21.8557 15.37C21.8586 14.9006 21.7498 14.749 21.2509 14.7547C18.7391 14.7833 16.2272 14.7824 13.7154 14.7547C13.268 14.7499 13.0724 14.9512 12.9713 15.3013C12.7671 16.0082 12.2815 16.4728 11.6786 16.8182C11.4039 16.9756 11.3581 17.1749 11.4487 17.4058C11.7568 18.1881 12.1117 18.9522 12.4122 19.7373C12.6269 20.2983 12.7633 20.8888 12.9713 21.4517C13.2813 22.2893 13.6238 23.1144 13.9854 24.0293H12.2787C12.0011 23.3711 11.7158 22.7386 11.4668 22.0918C11.2589 21.5518 11.0967 20.9947 10.9088 20.4471C10.7189 19.8957 10.5338 19.3414 10.3182 18.8005C10.2782 18.7004 10.0979 18.6555 9.99865 18.5954C9.6037 19.5322 9.22593 20.3965 8.87295 21.2714C8.58771 21.9802 8.30342 22.6928 8.07447 23.4216C7.92278 23.9053 7.70337 24.1944 7.15578 24.1104C7.01554 24.0894 6.87054 24.1075 6.72744 24.1066C6.14456 24.1018 6.05965 24.0064 6.2743 23.4703C6.75034 22.2816 7.26644 21.1092 7.73771 19.9176C8.04299 19.1459 8.29388 18.3522 8.58008 17.5718C8.62492 17.4497 8.72699 17.3486 8.81762 17.2141C8.43889 16.9136 8.04776 16.6235 7.68047 16.3068C6.8362 15.5789 6.60533 14.2491 6.95258 13.1587C7.23973 12.2591 7.78923 11.6418 8.57245 11.2269C9.71246 10.622 11.2675 10.6878 12.2148 11.8364C12.4733 12.1503 12.7051 12.4861 12.9589 12.8047C13.0199 12.8811 13.1125 12.9612 13.2021 12.9784C13.3719 13.0108 13.5494 13.0041 13.724 13.0041C21.3072 13.0041 28.8904 13.0041 36.4736 13.0041C36.8695 13.0041 37.1395 12.9841 37.399 12.509C37.7548 11.8565 38.3282 11.3299 39.1391 11.0666C39.679 10.892 40.197 10.8281 40.7093 10.9034C41.1491 10.9683 41.5832 11.1963 41.9753 11.4272C42.9416 11.9948 43.3833 12.966 43.4139 13.9915C43.4472 15.0743 43.0237 16.0855 42.0592 16.7581C41.877 16.8849 41.7062 17.029 41.5803 17.1263L41.5841 17.1272ZM26.4616 23.2556C26.4616 23.0324 26.4616 22.8454 26.4616 22.6584C26.4616 21.2284 26.4616 19.7994 26.4616 18.3693C26.4616 17.3524 26.452 16.3364 26.4654 15.3194C26.4711 14.9197 26.3404 14.7499 25.913 14.7785C25.375 14.8148 24.8331 14.7852 24.2932 14.7881C23.6988 14.7909 23.6263 14.8587 23.6263 15.4425C23.6244 17.8885 23.6254 20.3355 23.6263 22.7815C23.6263 22.9332 23.6444 23.0839 23.6559 23.2566H26.4616V23.2556ZM40.1684 15.8184C41.3046 15.9147 41.9228 14.9627 41.9342 14.1165C41.9457 13.2932 41.3428 12.3974 40.2609 12.3774C39.0103 12.3545 38.477 13.1959 38.4322 14.0726C38.3902 14.8901 39.0093 15.8918 40.1675 15.8193L40.1684 15.8184ZM10.033 12.3926C9.05898 12.2734 8.25095 13.2674 8.26145 14.1107C8.27194 15.0065 9.05039 15.8651 10.0053 15.8279C11.0585 15.7878 11.7254 15.162 11.7311 14.1155C11.7368 13.09 11.0519 12.3955 10.034 12.3926H10.033Z" fill="#EBC24F"/>
  <path d="M15.1819 11.3738C15.4442 10.7012 15.635 10.1126 15.9117 9.56595C15.9842 9.42286 16.319 9.35226 16.5346 9.35035C19.3317 9.33604 22.1298 9.34081 24.9268 9.34081C27.8518 9.34081 30.7757 9.35035 33.7006 9.33127C34.1748 9.32841 34.3627 9.54687 34.4867 9.94946C34.5859 10.2719 34.7462 10.5753 34.8702 10.891C34.9246 11.0284 34.957 11.1744 35.0152 11.3728H15.1819V11.3738Z" fill="#EBC24F"/>
  <path d="M44.1153 25.3792C44.0094 25.6387 43.9159 25.8419 43.8415 26.0518C43.7289 26.3695 43.6793 26.7243 43.5047 27.001C43.3941 27.1765 43.106 27.3339 42.8961 27.3368C41.0864 27.3626 39.2767 27.3568 37.466 27.3435C37.3124 27.3425 37.0777 27.2624 37.0195 27.1489C36.7353 26.5936 36.4977 26.0146 36.2153 25.3783H44.1162L44.1153 25.3792Z" fill="#EBC24F"/>
  <path d="M13.9923 25.3955C13.7147 26.0051 13.4896 26.5393 13.2253 27.0535C13.1566 27.1861 12.9639 27.3378 12.8266 27.3397C11.0149 27.3588 9.20333 27.3569 7.39171 27.3483C7.04446 27.3464 6.79452 27.2376 6.68386 26.8217C6.55984 26.3571 6.30417 25.9287 6.06567 25.3955H13.9933H13.9923Z" fill="#EBC24F"/>
</svg>
