<?xml version="1.0" encoding="UTF-8"?>
<svg xmlns="http://www.w3.org/2000/svg" width="247" height="58" viewBox="0 0 247 58" fill="none">
  <g clip-path="url(#clip0_399_724)">
    <path d="M174.955 37.3674C176.311 36.8591 176.99 35.8805 176.99 34.4315C176.99 32.5985 176.99 30.7656 176.99 28.8354H170.142V33.442C170.142 33.8151 170.142 34.1719 170.142 34.545C170.142 35.9724 170.761 36.9132 171.999 37.3674H163.246C164.689 36.87 165.41 35.8751 165.41 34.3828C165.41 30.1655 165.378 25.9319 165.442 21.7145C165.458 20.498 165.313 19.6869 163.876 19.8005C163.746 19.8005 163.601 19.7032 163.472 19.4923H172.031C171.967 19.5896 171.935 19.7194 171.886 19.7194C170.416 19.768 170.013 20.5304 170.126 21.9416C170.271 23.6123 170.19 25.2993 170.142 26.9862C170.126 27.7648 170.352 28.1054 171.176 28.073C172.758 28.0243 174.357 28.0081 175.94 28.073C176.844 28.1054 177.038 27.7161 177.022 26.9051C176.973 25.0235 176.957 23.1257 177.022 21.2441C177.054 20.2384 176.715 19.8005 175.73 19.8329C175.536 19.8329 175.342 19.7518 175.165 19.5247H183.659C183.659 19.5247 183.659 19.6545 183.659 19.6707C182.421 20.06 181.802 20.9305 181.802 22.2822C181.802 26.386 181.802 30.4736 181.802 34.5775C181.802 36.0049 182.437 36.9348 183.708 37.3674H174.987H174.955Z" fill="white"></path>
    <path d="M239.345 19.395C241.202 18.957 243.156 18.5028 245.288 18C245.288 18.6164 245.288 19.0543 245.288 19.4923C245.288 24.326 245.288 29.1598 245.288 33.9935C245.288 35.1938 245.288 36.3617 247.016 36.5077C246.984 36.605 246.935 36.7024 246.903 36.7997C245.03 37.1728 243.156 37.5458 241.186 37.9351C241.121 37.043 241.057 36.3293 240.992 35.4534C240.653 35.7616 240.459 35.94 240.265 36.1184C237.116 39.1354 233.079 38.0649 231.771 33.8637C230.22 28.8678 233.87 24.2612 239.086 24.6667C239.684 24.7153 240.282 24.7964 241.025 24.8775C241.025 23.4826 241.186 22.12 240.944 20.8386C240.847 20.3033 239.942 19.8978 239.377 19.395H239.345ZM241.073 31.0414C241.073 30.2628 241.025 29.4842 241.073 28.7056C241.186 27.1971 240.346 26.2563 239.28 25.429C238.505 24.8289 237.762 25.0235 237.132 25.7372C235.582 27.5053 235.566 32.7932 237.084 34.5775C237.197 34.7072 237.294 34.8208 237.423 34.9343C238.263 35.6642 239.183 35.648 240.169 35.2749C241.089 34.9181 241.105 34.1719 241.073 33.3609C241.041 32.5823 241.073 31.8037 241.073 31.0251V31.0414Z" fill="white"></path>
    <path d="M111.275 26.2076C113.149 25.7048 115.006 25.2019 117.025 24.6504C117.057 25.4453 117.089 26.1103 117.121 26.9375C117.477 26.7105 117.751 26.4996 118.042 26.3374C119.027 25.7859 119.98 25.1046 121.046 24.764C122.968 24.1152 124.712 25.1533 125.1 27.1484C125.326 28.3325 125.326 29.5815 125.342 30.8143C125.374 32.8094 125.342 34.8208 125.342 36.8483C125.891 37.0105 126.359 37.1565 126.844 37.3025C126.844 37.3674 126.828 37.4161 126.811 37.4809H119.964C121.53 37.2863 121.143 36.086 121.143 35.1127C121.143 33.2311 121.175 31.3496 121.143 29.468C121.111 27.7648 120.303 27.0349 118.704 27.1646C117.331 27.262 117.041 27.5702 117.041 28.9813C117.041 31.1873 117.073 33.4096 117.025 35.6156C116.992 36.605 117.121 37.3187 118.3 37.4647H111.582C112.842 37.2863 112.922 36.459 112.89 35.4209C112.826 33.2474 112.842 31.0738 112.89 28.9165C112.922 27.6837 112.713 26.6942 111.275 26.2401V26.2076Z" fill="white"></path>
    <path d="M215.475 37.4323C216.67 37.3025 216.719 36.5077 216.702 35.5669C216.654 33.3933 216.702 31.236 216.702 29.0624C216.702 27.8189 216.153 26.8943 215.055 26.2887C215.346 26.1914 215.556 26.0941 215.766 26.0454C217.478 25.575 219.19 25.1208 220.998 24.618V26.9213C221.547 26.532 221.935 26.1752 222.387 25.9643C223.566 25.4453 224.745 24.7315 225.973 24.618C227.846 24.4234 229.073 26.013 229.154 28.4461C229.219 30.6521 229.203 32.8743 229.154 35.0803C229.138 36.232 229.09 37.2701 230.656 37.4161H223.922C225.084 37.2052 225.084 36.3779 225.052 35.4371C224.987 33.3447 225.052 31.2684 224.939 29.176C224.826 27.3106 222.953 26.4185 221.386 27.4566C221.111 27.635 220.901 28.1217 220.901 28.4623C220.869 30.9927 220.821 33.5393 220.934 36.0697C220.95 36.5564 221.58 37.0105 221.887 37.4161H215.475V37.4323Z" fill="white"></path>
    <path d="M214.603 36.2482C212.73 36.8159 210.856 37.3836 208.821 38V35.5831C207.578 36.3131 206.512 37.1079 205.301 37.6269C203.282 38.4866 201.538 37.562 200.94 35.4534C200.762 34.7883 200.698 34.0746 200.698 33.3933C200.698 31.2684 200.698 29.1436 200.811 27.0187C200.876 25.8994 200.601 25.283 199.39 25.3642C199.244 25.3642 199.115 25.283 198.986 25.1208H204.913C204.913 26.9538 204.913 28.738 204.913 30.5223C204.913 31.382 204.913 32.2417 204.913 33.1014C204.945 34.9667 206.35 35.9075 208.062 35.1452C208.401 34.9992 208.757 34.4477 208.773 34.0746C208.837 31.5442 208.741 28.9976 208.821 26.4672C208.87 25.0722 207.772 25.575 206.867 25.1695H212.972C212.972 28.0406 213.02 30.8792 212.956 33.734C212.923 34.9667 213.182 35.8427 214.587 36.2806L214.603 36.2482Z" fill="white"></path>
    <path d="M104.88 35.4534C103.911 36.1346 103.152 36.751 102.312 37.2214C99.5018 38.811 97.0954 37.6107 96.8532 34.3666C96.6917 32.2092 96.8532 30.0357 96.8693 27.8621C96.8693 27.1322 96.8693 26.3861 96.8693 25.575C96.2556 25.4615 95.6581 25.3479 95.0767 25.2344V25.1046H100.988C100.988 27.3917 100.988 29.6302 100.988 31.8686C100.988 32.4039 100.955 32.9392 101.004 33.4582C101.181 35.1127 103.2 35.9562 104.524 34.9181C104.734 34.7559 104.864 34.3666 104.864 34.0908C104.896 31.5118 104.831 28.9327 104.896 26.3536C104.944 24.9586 103.701 25.6237 103.103 25.0722H108.998C108.998 25.9805 108.998 26.8564 108.998 27.7324C108.998 29.6139 108.998 31.4955 108.998 33.3933C108.998 34.6261 108.998 35.8589 110.71 36.2157C108.82 36.7835 106.947 37.3674 104.864 38V35.4371L104.88 35.4534Z" fill="white"></path>
    <path d="M79.1364 31.1549C78.8619 32.8256 78.5873 34.4964 78.2805 36.1671C78.2482 36.3455 77.9898 36.5726 77.796 36.6375C74.243 37.7243 70.6738 38.3893 67.0239 36.9781C63.2125 35.5183 60.8384 32.1119 60.9999 28.3163C61.1937 24.0989 63.7616 20.7737 67.7345 19.6383C70.4154 18.8759 73.0802 18.7624 75.7772 19.7356C76.4878 19.9951 77.3438 19.768 78.2482 19.768C78.3451 21.6334 78.442 23.5312 78.5712 25.7372C78.1997 25.3317 77.9898 25.1695 77.8767 24.9586C77.2953 23.9692 76.6332 23.0284 76.181 21.974C75.4865 20.352 74.356 19.6383 72.6118 19.5572C70.7061 19.4761 69.1396 20.0276 68.0252 21.5848C66.2487 24.0503 65.9903 26.9051 66.2487 29.7924C66.3779 31.1874 66.7009 32.6472 67.2662 33.9286C68.9781 37.854 73.3709 38.5353 76.2456 35.356C76.9723 34.5612 77.4568 33.5231 78.0221 32.5823C78.3289 32.0795 78.5712 31.5442 78.8296 31.0089C78.9265 31.0414 79.0395 31.09 79.1364 31.1225V31.1549Z" fill="white"></path>
    <path d="M87.3893 37.9189C84.3692 38 81.7529 36.4266 80.6709 33.8962C79.6534 31.4955 80.251 28.3974 82.0759 26.5969C84.127 24.5693 87.8576 23.953 90.6516 25.1695C93.1871 26.2725 94.6083 28.5921 94.5114 31.4307C94.3822 35.1127 91.4268 37.7891 87.4054 37.9027L87.3893 37.9189ZM84.45 31.3171C84.773 32.9067 85.0152 34.5937 85.532 36.2157C85.7097 36.751 86.5979 37.4323 87.1147 37.3998C87.7769 37.3512 88.4552 36.7024 89.0366 36.232C89.2788 36.0211 89.3757 35.5831 89.4726 35.2425C90.1994 32.4526 90.1832 29.6626 89.4242 26.8889C89.1658 25.9643 88.762 25.0884 87.5831 25.0397C86.3718 24.9911 85.6289 25.721 85.3382 26.7591C84.9506 28.2028 84.7568 29.6951 84.45 31.3333V31.3171Z" fill="white"></path>
    <path d="M87.2923 37.9189C90.3124 38 92.9287 36.4266 94.0108 33.8962C95.0282 31.4955 94.4307 28.3974 92.6057 26.5969C90.5547 24.5693 86.824 23.953 84.03 25.1695C81.4945 26.2725 80.0733 28.5921 80.1702 31.4307C80.2994 35.1127 83.2548 37.7891 87.2762 37.9027L87.2923 37.9189ZM90.2317 31.3171C89.9087 32.9067 89.6664 34.5937 89.1496 36.2157C88.972 36.751 88.0837 37.4323 87.5669 37.3998C86.9047 37.3512 86.2264 36.7024 85.645 36.232C85.4028 36.0211 85.3059 35.5831 85.209 35.2425C84.4822 32.4526 84.4984 29.6626 85.2574 26.8889C85.5158 25.9643 85.9196 25.0884 87.0985 25.0397C88.3098 24.9911 89.0527 25.721 89.3434 26.7591C89.731 28.2028 89.9248 29.6951 90.2317 31.3333V31.3171Z" fill="white"></path>
    <path d="M190.733 37.9351C188.23 37.854 185.888 36.8646 184.677 34.1882C183.53 31.6577 183.692 29.0949 185.598 26.9538C187.6 24.7153 190.233 24.2125 193.091 24.7964C195.724 25.3479 197.452 26.9051 198.13 29.5491C199.277 33.9286 195.885 37.9351 190.733 37.9351ZM188.214 31.2847C188.602 32.9716 188.86 34.7559 189.441 36.4266C189.894 37.7567 191.46 37.9027 192.413 36.8483C192.784 36.4266 193.107 35.9075 193.253 35.3885C194.028 32.485 194.044 29.5815 193.188 26.6942C192.93 25.8346 192.445 25.1371 191.428 25.0722C190.346 25.0073 189.571 25.5588 189.28 26.532C188.844 28.0406 188.585 29.614 188.214 31.3171V31.2847Z" fill="white"></path>
    <path d="M191.573 37.9351C194.076 37.854 196.418 36.8646 197.629 34.1882C198.776 31.6577 198.615 29.0949 196.709 26.9538C194.706 24.7153 192.074 24.2125 189.215 24.7964C186.583 25.3479 184.855 26.9051 184.176 29.5491C183.03 33.9286 186.421 37.9351 191.573 37.9351ZM194.093 31.2847C193.705 32.9716 193.447 34.7559 192.865 36.4266C192.413 37.7567 190.846 37.9027 189.893 36.8483C189.522 36.4266 189.199 35.9075 189.054 35.3885C188.278 32.485 188.262 29.5815 189.118 26.6942C189.377 25.8346 189.861 25.1371 190.879 25.0722C191.961 25.0073 192.736 25.5588 193.027 26.532C193.463 28.0406 193.721 29.614 194.093 31.3171V31.2847Z" fill="white"></path>
    <path d="M143.511 29.3544C143.204 32.2092 144.06 34.2855 145.852 35.129C147.661 35.9724 149.276 35.4858 151.311 33.3122C150.584 35.3723 149.502 36.7348 147.79 37.4647C144.496 38.8759 140.749 37.3674 139.409 34.1395C137.955 30.6196 139.683 26.4509 143.188 25.056C144.786 24.4234 146.45 24.2936 148.097 24.8289C149.728 25.3479 150.778 26.4672 151.166 28.1865C151.343 29.0138 151.085 29.3869 150.181 29.3706C147.984 29.322 145.788 29.3706 143.511 29.3706V29.3544ZM143.317 28.6732H147.419C147.209 27.6999 147.144 26.8402 146.821 26.0616C146.321 24.8127 145.061 24.6991 144.383 25.8508C143.898 26.6618 143.688 27.635 143.301 28.6732H143.317Z" fill="white"></path>
    <path d="M151.634 19.4599C153.524 19.0057 155.413 18.5677 157.416 18.0811V36.7672C157.819 36.9457 158.142 37.0754 158.821 37.3674H152.716C152.878 36.8808 153.201 36.3455 153.217 35.8102C153.265 31.3495 153.233 26.8727 153.249 22.412C153.249 21.1955 153.265 19.9789 151.553 19.7518C151.586 19.6545 151.618 19.5572 151.666 19.4761L151.634 19.4599Z" fill="white"></path>
    <path d="M136.97 25.056V29.0462C136.082 27.8946 135.468 26.9213 134.676 26.1265C134.176 25.6237 133.433 25.2506 132.755 25.0884C131.866 24.8938 131.172 25.3966 130.881 26.3049C130.591 27.2133 130.881 27.9757 131.673 28.4136C132.738 28.9976 133.869 29.468 134.983 29.987C137.034 30.944 137.939 32.2417 137.793 33.9935C137.632 35.7778 136.259 37.2052 134.224 37.708C132.254 38.1946 130.332 37.9189 128.443 37.335C128.168 37.2539 127.845 36.8646 127.829 36.5888C127.748 35.6318 127.797 34.6586 127.797 33.296C128.604 34.4477 129.185 35.2912 129.783 36.1346C130.477 37.1403 131.495 37.6431 132.625 37.4161C133.271 37.2863 134.03 36.7348 134.353 36.1671C134.773 35.4371 134.547 34.4964 133.724 34.0422C132.593 33.4096 131.382 32.9067 130.219 32.3228C128.378 31.3982 127.635 30.2141 127.764 28.4623C127.893 26.8078 128.976 25.3642 130.736 24.9749C131.931 24.7153 133.223 24.8127 134.467 24.8127C135.226 24.8127 135.968 24.9424 136.97 25.0397V25.056Z" fill="white"></path>
  </g>
  <path d="M0.00286195 24.0122C0.00286195 18.7824 0.00286195 13.5517 0.00286195 8.32199C0.00286195 6.50656 0.802301 5.07558 2.15696 3.93748C2.70645 3.47575 3.37615 3.25252 4.07638 3.04741C4.7413 2.8528 5.38429 2.86711 6.03967 2.86616C10.9517 2.85757 15.8638 2.85566 20.7759 2.87188C21.2128 2.87379 21.3836 2.66105 21.5076 2.32048C21.873 1.31689 22.6447 0.699657 23.572 0.292306C24.0156 0.0976933 24.5374 0.0175586 25.0278 0.00229485C26.5646 -0.0454044 27.7152 0.651958 28.506 1.95605C28.6233 2.14971 28.6834 2.37772 28.7979 2.57328C28.8609 2.68108 28.9687 2.79747 29.0813 2.83467C29.2253 2.88237 29.3951 2.86043 29.5535 2.86043C34.5772 2.86043 39.5999 2.87188 44.6236 2.85471C46.0984 2.84994 47.3777 3.29736 48.4395 4.31526C49.0577 4.90864 49.4879 5.61268 49.797 6.43596C50.4057 8.05774 50.2387 9.72626 50.2435 11.3843C50.2616 17.175 50.253 22.9656 50.254 28.7563C50.2549 32.4215 50.3198 36.0877 50.2311 39.7501C50.1824 41.7515 49.3563 43.4496 47.5723 44.5686C45.8246 45.6648 44.0884 46.78 42.354 47.8971C41.318 48.5639 40.3068 49.2699 39.2641 49.9252C37.9638 50.7428 36.6397 51.5213 35.3327 52.3283C34.3768 52.9188 33.4267 53.5208 32.4851 54.1352C31.4739 54.7953 30.4884 55.4956 29.4676 56.1404C28.6501 56.6566 27.823 57.1736 26.9501 57.5857C25.9837 58.0417 24.982 58.1324 23.8983 57.8023C22.4034 57.3482 21.2519 56.3446 19.9459 55.5919C19.0224 55.0596 18.1419 54.4548 17.2423 53.8814C16.1462 53.1831 15.052 52.4819 13.9539 51.7884C12.9866 51.1769 12.0068 50.5854 11.0452 49.9653C10.0168 49.3013 9.01038 48.604 7.98199 47.941C7.1482 47.4039 6.29439 46.8992 5.45107 46.3783C4.45701 45.763 3.4229 45.203 2.48608 44.5114C1.63227 43.8818 0.913917 43.1119 0.49321 42.0711C0.151684 41.2325 0 40.3997 0 39.5116C0.00572391 34.3448 0.00286195 29.1789 0.00286195 24.0122ZM44.8401 31.8253C44.7657 33.4366 44.9594 34.9601 44.3841 36.4655C44.056 37.3231 43.6324 38.0873 43.0924 38.7942C42.3493 39.7663 41.3714 40.4426 40.2524 40.953C39.3538 41.3623 38.4265 41.6513 37.4563 41.6647C34.6115 41.7048 31.7648 41.6885 28.9191 41.6752C28.6005 41.6733 28.4268 41.7954 28.2952 42.0492C28.1063 42.4136 27.9193 42.7789 27.7256 43.1405C27.1227 44.2672 26.288 45.2231 25.314 46.0168C24.6853 46.53 23.9355 46.9021 23.1246 47.1701C22.286 47.4477 21.4723 47.6424 20.5937 47.5908C20.1825 47.566 19.9993 47.3724 20.0051 46.9631C20.0146 46.3116 20.0117 45.659 20.0031 45.0075C20.0012 44.8539 19.9574 44.7003 19.9116 44.4093C19.0749 45.4988 18.3375 46.4642 17.5934 47.4258C16.9504 48.2577 16.296 49.0819 15.6568 49.9167C15.4927 50.1303 15.3878 50.344 15.7531 50.5158C16.0203 50.6417 16.2464 50.8544 16.4973 51.0185C17.4026 51.609 18.3098 52.1948 19.218 52.7815C20.026 53.3033 20.8312 53.8289 21.644 54.3431C22.2107 54.7018 22.8002 55.0281 23.3583 55.4002C24.1673 55.9401 25.0554 56.1118 25.9541 55.8094C26.5456 55.61 27.0684 55.2008 27.615 54.8726C28.4879 54.3489 29.3598 53.8242 30.2213 53.2823C31.1857 52.6765 32.1397 52.0536 33.0956 51.4344C34.1288 50.7667 35.1581 50.0922 36.1913 49.4263C37.3857 48.6555 38.5848 47.8914 39.7802 47.1215C40.7008 46.5281 41.6138 45.9233 42.5382 45.3375C43.412 44.7842 44.3011 44.2538 45.1759 43.7024C45.754 43.338 46.3655 43.006 46.8807 42.5653C47.8204 41.762 48.2163 40.6954 48.2153 39.4553C48.2077 29.2963 48.2058 19.1383 48.221 8.97929C48.222 8.12738 48.0493 7.3413 47.6744 6.59528C47.1888 5.62889 46.3951 4.96587 45.319 4.95729C40.0091 4.91341 34.6993 4.93153 29.3894 4.94298C29.252 4.94298 29.0669 5.08417 28.9849 5.21105C28.6644 5.70903 28.4383 6.27951 28.0624 6.72884C27.2496 7.70095 26.1602 8.06537 24.8942 8.04724C24.152 8.03675 23.4671 7.82687 22.9061 7.4386C22.0533 6.84904 21.4389 6.0143 21.1966 4.9611C21.1155 4.95061 21.0535 4.93535 20.9915 4.93535C15.6177 4.9363 10.2448 4.93344 4.87104 4.95347C4.51235 4.95443 4.10499 5.06223 3.80449 5.25302C2.71409 5.94657 2.06061 6.93204 2.06061 8.26762C2.05774 16.6932 2.0587 25.1197 2.06251 33.5453C2.06251 33.7237 2.11308 33.9012 2.13597 34.0548C2.58339 33.9746 2.97071 33.9203 3.34944 33.8334C3.93709 33.698 4.51902 33.5339 5.10572 33.3946C5.7573 33.2401 6.41268 33.097 7.06712 32.952C7.56891 32.8413 8.06975 32.724 8.57441 32.6286C9.2193 32.5064 9.87374 32.4311 10.512 32.2861C11.4182 32.0791 12.3093 31.8005 13.2175 31.6002C14.18 31.3884 15.155 31.2357 16.1233 31.0507C16.5812 30.9629 17.0382 30.8685 17.4923 30.7626C18.1267 30.6156 18.7515 30.3991 19.3935 30.3209C19.86 30.2636 20.0299 30.1158 20.0146 29.6502C19.9936 29.0158 20.0232 29.0082 20.648 29.0082C24.0185 29.0082 27.3889 29.0015 30.7593 29.013C31.512 29.0158 32.2571 28.9633 33.0107 29.2238C34.0792 29.592 34.8395 30.2178 35.2745 31.2586C35.4224 31.6116 35.6227 31.8482 36.1045 31.8425C38.8071 31.8119 41.5098 31.8282 44.2124 31.8282H44.8392L44.8401 31.8253ZM16.4066 32.8413C15.6625 32.9739 15.071 33.0559 14.491 33.1876C13.5389 33.4051 12.5993 33.6808 11.6443 33.884C10.6217 34.1015 9.58754 34.2646 8.55819 34.4516C8.51145 34.4602 8.4647 34.4707 8.41891 34.4831C7.83221 34.6319 7.25028 34.7989 6.65881 34.9248C6.07497 35.0498 5.47873 35.1165 4.89489 35.2396C4.13552 35.3999 3.37997 35.583 2.62727 35.7719C2.34585 35.8425 2.04916 35.9007 2.05488 36.3214C2.07396 37.6236 2.06442 38.9268 2.07301 40.2289C2.07778 40.8901 2.37924 41.4491 2.74652 41.9662C3.33513 42.7942 4.27767 43.1787 5.07997 43.732C5.93283 44.3206 6.85819 44.8043 7.73491 45.3604C8.78429 46.0263 9.81841 46.717 10.8544 47.4029C11.5776 47.8818 12.3035 48.3578 13.0095 48.8606C13.6792 49.3366 13.8051 49.3261 14.325 48.6412C15.0834 47.6424 15.8524 46.6521 16.6012 45.6466C16.7195 45.4883 16.8273 45.2679 16.8226 45.08C16.8016 44.3244 16.7186 43.5708 16.6871 42.8152C16.5869 40.3625 16.4915 37.9089 16.4104 35.4552C16.3828 34.6186 16.4057 33.78 16.4057 32.8403L16.4066 32.8413ZM42.9989 33.6474C42.77 33.6474 42.583 33.6474 42.396 33.6474C39.8231 33.6474 37.2502 33.6474 34.6773 33.6474C33.8073 33.6474 33.7987 33.6474 33.772 32.7841C33.7491 32.0333 33.524 31.4141 32.7875 31.0783C32.1464 30.7855 31.4672 30.8274 30.7889 30.8198C30.4531 30.816 30.3462 30.9667 30.3291 31.2729C30.2575 32.5665 30.1946 33.8601 30.0906 35.1509C30.0248 35.9675 29.8921 36.7774 29.7882 37.5912C29.7824 37.6379 29.7643 37.6828 29.7519 37.7276C29.5649 38.4126 29.377 39.0985 29.1862 39.7958C29.336 39.833 29.397 39.8645 29.4562 39.8617C32.487 39.7176 35.5321 40.1593 38.5572 39.6251C39.3805 39.4801 40.0626 39.1013 40.6884 38.6158C41.5508 37.947 42.1776 37.1008 42.5887 36.0581C42.8921 35.2902 43.0552 34.5413 42.9999 33.6474H42.9989ZM28.5728 30.8255C26.3595 30.8255 24.3113 30.8255 22.2622 30.8255C21.9369 30.8255 21.8205 31.0335 21.8157 31.3206C21.8081 31.7652 21.8129 32.2107 21.8129 32.6562C21.8129 36.7889 21.8176 40.9225 21.8052 45.0552C21.8043 45.4644 21.913 45.7029 22.3347 45.5646C22.7182 45.4387 23.0788 45.2364 23.4356 45.0418C24.6996 44.353 25.5525 43.2731 26.2145 42.0329C26.515 41.4701 26.786 40.8862 27.0044 40.2881C27.3593 39.315 27.7295 38.3382 27.9632 37.3327C28.1759 36.4159 28.215 35.46 28.3314 34.5203C28.3429 34.4268 28.3639 34.3333 28.3696 34.2389C28.4373 33.1237 28.5031 32.0075 28.5728 30.8265V30.8255ZM18.3957 42.8848C18.4758 42.9173 18.5559 42.9497 18.6361 42.9821C18.7849 42.8123 18.9185 42.6254 19.0864 42.4765C19.7971 41.845 20.0594 41.0952 20.0308 40.1192C19.9602 37.6732 20.0079 35.2234 20.007 32.7745C20.007 32.0495 20.0041 32.0476 19.2943 32.1353C18.1696 32.2737 18.1343 32.2908 18.1705 33.4299C18.2297 35.2501 18.3394 37.0694 18.388 38.8896C18.4233 40.2204 18.3947 41.554 18.3947 42.8858L18.3957 42.8848ZM26.9987 3.98804C27.0674 2.83658 26.1268 2.02093 25.0535 2.0381C23.8715 2.05718 23.1217 3.05314 23.0921 3.98327C23.0568 5.10134 23.9727 5.92558 25.0974 5.96183C26.1363 5.99522 27.0979 5.17194 26.9987 3.98804Z" fill="#EBC24F"></path>
  <path d="M41.5841 17.1272C42.4398 19.4588 43.2727 21.7274 44.1475 24.1104C43.4654 24.0045 42.8586 24.3775 42.3845 23.8547C42.2109 23.6639 42.1317 23.3768 42.0411 23.1221C41.6681 22.0813 41.3122 21.0348 40.9383 19.9949C40.7503 19.4721 40.5347 18.9589 40.3134 18.3941C40.1875 18.6011 40.0368 18.7881 39.948 19.0018C39.6017 19.8356 39.2688 20.6742 38.9435 21.5156C38.6602 22.2492 38.4054 22.9952 38.1097 23.7231C38.0477 23.8748 37.8674 24.0675 37.7253 24.0818C37.2721 24.1276 36.8104 24.099 36.2285 24.099C36.3544 23.7956 36.4441 23.5829 36.5299 23.3692C36.9554 22.3055 37.3904 21.2465 37.8016 20.1771C38.0973 19.4092 38.3606 18.6279 38.6392 17.8532C38.6602 17.795 38.6888 17.7378 38.7222 17.6844C38.9979 17.2474 38.9502 17.0729 38.5266 16.8191C37.7606 16.3593 37.275 15.6839 37.0145 14.7957H28.2999V15.3681C28.2999 18.3884 28.2999 21.4097 28.2999 24.43C28.2999 25.0806 28.297 25.0816 27.6388 25.0816C25.954 25.0816 24.2684 25.0816 22.5836 25.0816C21.9464 25.0816 21.8481 24.9871 21.8471 24.3365C21.8443 21.3477 21.8366 18.3588 21.8557 15.37C21.8586 14.9006 21.7498 14.749 21.2509 14.7547C18.7391 14.7833 16.2272 14.7824 13.7154 14.7547C13.268 14.7499 13.0724 14.9512 12.9713 15.3013C12.7671 16.0082 12.2815 16.4728 11.6786 16.8182C11.4039 16.9756 11.3581 17.1749 11.4487 17.4058C11.7568 18.1881 12.1117 18.9522 12.4122 19.7373C12.6269 20.2983 12.7633 20.8888 12.9713 21.4517C13.2813 22.2893 13.6238 23.1144 13.9854 24.0293H12.2787C12.0011 23.3711 11.7158 22.7386 11.4668 22.0918C11.2589 21.5518 11.0967 20.9947 10.9088 20.4471C10.7189 19.8957 10.5338 19.3414 10.3182 18.8005C10.2782 18.7004 10.0979 18.6555 9.99865 18.5954C9.6037 19.5322 9.22593 20.3965 8.87295 21.2714C8.58771 21.9802 8.30342 22.6928 8.07447 23.4216C7.92278 23.9053 7.70337 24.1944 7.15578 24.1104C7.01554 24.0894 6.87054 24.1075 6.72744 24.1066C6.14456 24.1018 6.05965 24.0064 6.2743 23.4703C6.75034 22.2816 7.26644 21.1092 7.73771 19.9176C8.04299 19.1459 8.29388 18.3522 8.58008 17.5718C8.62492 17.4497 8.72699 17.3486 8.81762 17.2141C8.43889 16.9136 8.04776 16.6235 7.68047 16.3068C6.8362 15.5789 6.60533 14.2491 6.95258 13.1587C7.23973 12.2591 7.78923 11.6418 8.57245 11.2269C9.71246 10.622 11.2675 10.6878 12.2148 11.8364C12.4733 12.1503 12.7051 12.4861 12.9589 12.8047C13.0199 12.8811 13.1125 12.9612 13.2021 12.9784C13.3719 13.0108 13.5494 13.0041 13.724 13.0041C21.3072 13.0041 28.8904 13.0041 36.4736 13.0041C36.8695 13.0041 37.1395 12.9841 37.399 12.509C37.7548 11.8565 38.3282 11.3299 39.1391 11.0666C39.679 10.892 40.197 10.8281 40.7093 10.9034C41.1491 10.9683 41.5832 11.1963 41.9753 11.4272C42.9416 11.9948 43.3833 12.966 43.4139 13.9915C43.4472 15.0743 43.0237 16.0855 42.0592 16.7581C41.877 16.8849 41.7062 17.029 41.5803 17.1263L41.5841 17.1272ZM26.4616 23.2556C26.4616 23.0324 26.4616 22.8454 26.4616 22.6584C26.4616 21.2284 26.4616 19.7994 26.4616 18.3693C26.4616 17.3524 26.452 16.3364 26.4654 15.3194C26.4711 14.9197 26.3404 14.7499 25.913 14.7785C25.375 14.8148 24.8331 14.7852 24.2932 14.7881C23.6988 14.7909 23.6263 14.8587 23.6263 15.4425C23.6244 17.8885 23.6254 20.3355 23.6263 22.7815C23.6263 22.9332 23.6444 23.0839 23.6559 23.2566H26.4616V23.2556ZM40.1684 15.8184C41.3046 15.9147 41.9228 14.9627 41.9342 14.1165C41.9457 13.2932 41.3428 12.3974 40.2609 12.3774C39.0103 12.3545 38.477 13.1959 38.4322 14.0726C38.3902 14.8901 39.0093 15.8918 40.1675 15.8193L40.1684 15.8184ZM10.033 12.3926C9.05898 12.2734 8.25095 13.2674 8.26145 14.1107C8.27194 15.0065 9.05039 15.8651 10.0053 15.8279C11.0585 15.7878 11.7254 15.162 11.7311 14.1155C11.7368 13.09 11.0519 12.3955 10.034 12.3926H10.033Z" fill="#EBC24F"></path>
  <path d="M15.1819 11.3738C15.4442 10.7012 15.635 10.1126 15.9117 9.56595C15.9842 9.42286 16.319 9.35226 16.5346 9.35035C19.3317 9.33604 22.1298 9.34081 24.9268 9.34081C27.8518 9.34081 30.7757 9.35035 33.7006 9.33127C34.1748 9.32841 34.3627 9.54687 34.4867 9.94946C34.5859 10.2719 34.7462 10.5753 34.8702 10.891C34.9246 11.0284 34.957 11.1744 35.0152 11.3728H15.1819V11.3738Z" fill="#EBC24F"></path>
  <path d="M44.1153 25.3792C44.0094 25.6387 43.9159 25.8419 43.8415 26.0518C43.7289 26.3695 43.6793 26.7243 43.5047 27.001C43.3941 27.1765 43.106 27.3339 42.8961 27.3368C41.0864 27.3626 39.2767 27.3568 37.466 27.3435C37.3124 27.3425 37.0777 27.2624 37.0195 27.1489C36.7353 26.5936 36.4977 26.0146 36.2153 25.3783H44.1162L44.1153 25.3792Z" fill="#EBC24F"></path>
  <path d="M13.9923 25.3955C13.7147 26.0051 13.4896 26.5393 13.2253 27.0535C13.1566 27.1861 12.9639 27.3378 12.8266 27.3397C11.0149 27.3588 9.20333 27.3569 7.39171 27.3483C7.04446 27.3464 6.79452 27.2376 6.68386 26.8217C6.55984 26.3571 6.30417 25.9287 6.06567 25.3955H13.9933H13.9923Z" fill="#EBC24F"></path>
  <defs>
    <clipPath id="clip0_399_724">
      <rect width="186" height="20" fill="white" transform="translate(61 18)"></rect>
    </clipPath>
  </defs>
</svg>
